<?xml version="1.0" encoding="UTF-8"?>
<!DOCTYPE svg PUBLIC "-//W3C//DTD SVG 1.1//EN" "http://www.w3.org/Graphics/SVG/1.1/DTD/svg11.dtd">
<!-- Creator: CorelDRAW X8 -->
<svg xmlns="http://www.w3.org/2000/svg" xml:space="preserve" width="500px" height="500px" version="1.1" style="shape-rendering:geometricPrecision; text-rendering:geometricPrecision; image-rendering:optimizeQuality; fill-rule:evenodd; clip-rule:evenodd"
viewBox="0 0 577 577"
 xmlns:xlink="http://www.w3.org/1999/xlink">
 <defs>
  <style type="text/css">
   <![CDATA[
    .str0 {stroke:#2B2A29;stroke-width:8.63652}
    .str1 {stroke:#2B2A29;stroke-width:34.5481}
    .fil154 {fill:none}
    .fil155 {fill:none;fill-rule:nonzero}
    .fil0 {fill:#FEFEFE}
    .fil1 {fill:#FEFEFE}
    .fil2 {fill:#FDFDFD}
    .fil3 {fill:#FCFCFC}
    .fil4 {fill:#FBFCFB}
    .fil5 {fill:#FBFBFB}
    .fil6 {fill:#FAFAFA}
    .fil7 {fill:#F9F9F9}
    .fil8 {fill:#F9F9F9}
    .fil9 {fill:#F8F8F8}
    .fil10 {fill:#F7F7F7}
    .fil11 {fill:#F6F6F6}
    .fil12 {fill:#F6F6F6}
    .fil13 {fill:whitesmoke}
    .fil14 {fill:#F4F4F4}
    .fil15 {fill:#F3F4F4}
    .fil16 {fill:#F3F3F3}
    .fil17 {fill:#F2F2F2}
    .fil18 {fill:#F1F1F1}
    .fil19 {fill:#F1F1F1}
    .fil20 {fill:#F0F0F0}
    .fil21 {fill:#EFEFEF}
    .fil22 {fill:#EEEFEF}
    .fil23 {fill:#EEEEEE}
    .fil24 {fill:#EDEDED}
    .fil25 {fill:#ECEDED}
    .fil26 {fill:#EBECEC}
    .fil27 {fill:#EBEBEB}
    .fil28 {fill:#EAEAEA}
    .fil29 {fill:#E9EAEA}
    .fil30 {fill:#E9E9E9}
    .fil31 {fill:#E8E8E8}
    .fil32 {fill:#E7E8E8}
    .fil33 {fill:#E6E7E7}
    .fil34 {fill:#E6E6E6}
    .fil35 {fill:#E5E5E5}
    .fil36 {fill:#E4E5E5}
    .fil37 {fill:#E4E4E4}
    .fil38 {fill:#E3E3E3}
    .fil39 {fill:#E2E3E3}
    .fil40 {fill:#E1E2E2}
    .fil41 {fill:#E1E1E1}
    .fil42 {fill:#E0E0E0}
    .fil43 {fill:#DFE0E0}
    .fil44 {fill:#DEDFDF}
    .fil45 {fill:#DEDEDE}
    .fil46 {fill:#DDDDDE}
    .fil47 {fill:#DCDDDD}
    .fil48 {fill:gainsboro}
    .fil49 {fill:#DBDBDB}
    .fil50 {fill:#DADBDB}
    .fil51 {fill:#D9DADA}
    .fil52 {fill:#D9D9D9}
    .fil53 {fill:#D8D8D9}
    .fil54 {fill:#D7D8D8}
    .fil55 {fill:#D6D7D7}
    .fil56 {fill:#D6D6D6}
    .fil57 {fill:#D5D5D6}
    .fil58 {fill:#D4D5D5}
    .fil59 {fill:#D3D4D4}
    .fil60 {fill:#D2D3D3}
    .fil61 {fill:#D2D2D3}
    .fil62 {fill:#D1D2D2}
    .fil63 {fill:#D0D1D1}
    .fil64 {fill:#CFD0D0}
    .fil65 {fill:#CFCFCF}
    .fil66 {fill:#CECECF}
    .fil67 {fill:#CDCECE}
    .fil68 {fill:#CCCDCD}
    .fil69 {fill:#CCCCCC}
    .fil70 {fill:#CBCBCC}
    .fil71 {fill:#CACBCB}
    .fil72 {fill:#C9CACA}
    .fil73 {fill:#C8C9C9}
    .fil74 {fill:#C8C8C9}
    .fil75 {fill:#C7C8C8}
    .fil76 {fill:#C6C7C7}
    .fil77 {fill:#C5C6C6}
    .fil78 {fill:#C5C5C6}
    .fil79 {fill:#C4C5C5}
    .fil80 {fill:#C3C4C4}
    .fil81 {fill:#C2C3C3}
    .fil82 {fill:#C2C2C3}
    .fil83 {fill:#C1C1C2}
    .fil84 {fill:#C0C1C1}
    .fil85 {fill:#BFC0C0}
    .fil86 {fill:#BFBFC0}
    .fil87 {fill:#BEBEBF}
    .fil88 {fill:#BDBEBE}
    .fil89 {fill:#BCBDBD}
    .fil90 {fill:#BBBCBD}
    .fil91 {fill:#BBBBBC}
    .fil92 {fill:#BABBBB}
    .fil93 {fill:#B9BABA}
    .fil94 {fill:#B8B9BA}
    .fil95 {fill:#B8B8B9}
    .fil96 {fill:#B7B8B8}
    .fil97 {fill:#B6B7B7}
    .fil98 {fill:#B5B6B7}
    .fil99 {fill:#B5B5B6}
    .fil100 {fill:#B4B4B5}
    .fil101 {fill:#B3B4B4}
    .fil102 {fill:#B2B3B3}
    .fil103 {fill:#B1B2B3}
    .fil104 {fill:#B1B1B2}
    .fil105 {fill:#B0B0B1}
    .fil106 {fill:#AFB0B0}
    .fil107 {fill:#AEAFAF}
    .fil108 {fill:#ADAEAE}
    .fil109 {fill:#ADADAE}
    .fil110 {fill:#ACACAD}
    .fil111 {fill:#ABACAC}
    .fil112 {fill:#AAABAB}
    .fil113 {fill:#A9AAAA}
    .fil114 {fill:darkgray}
    .fil115 {fill:#A8A8A9}
    .fil116 {fill:#A7A7A8}
    .fil117 {fill:#A6A7A7}
    .fil118 {fill:#A5A6A6}
    .fil119 {fill:#A4A5A5}
    .fil120 {fill:#A4A4A4}
    .fil121 {fill:#A3A3A4}
    .fil122 {fill:#A2A3A3}
    .fil123 {fill:#A1A2A2}
    .fil124 {fill:#A0A1A1}
    .fil125 {fill:#A0A0A0}
    .fil126 {fill:#9F9F9F}
    .fil127 {fill:#9E9E9F}
    .fil128 {fill:#9C9C9C}
    .fil129 {fill:#979898}
    .fil130 {fill:#939494}
    .fil131 {fill:#8F908F}
    .fil132 {fill:#8B8B8B}
    .fil133 {fill:#878787}
    .fil134 {fill:#838382}
    .fil135 {fill:#7E7E7E}
    .fil136 {fill:#7A7A79}
    .fil137 {fill:#757575}
    .fil138 {fill:#717170}
    .fil139 {fill:#6C6C6C}
    .fil140 {fill:#686867}
    .fil141 {fill:#636363}
    .fil142 {fill:#5F5F5E}
    .fil143 {fill:#5A5A5A}
    .fil144 {fill:#565655}
    .fil145 {fill:#515150}
    .fil146 {fill:#4C4C4B}
    .fil147 {fill:#474746}
    .fil148 {fill:#434242}
    .fil149 {fill:#3E3E3D}
    .fil150 {fill:#393938}
    .fil151 {fill:#343433}
    .fil152 {fill:#2F2F2E}
    .fil153 {fill:#2B2A29}
   ]]>
  </style>
    <clipPath id="id0">
     <path d="M288 4c157,0 285,128 285,284 0,157 -128,285 -285,285 -156,0 -284,-128 -284,-285 0,-156 128,-284 284,-284z"/>
    </clipPath>
 </defs>
 <g id="Слой_x0020_1">
  <metadata id="CorelCorpID_0Corel-Layer"/>
  <g>
   <g style="clip-path:url(#id0)">
    <path class="fil0" d="M290 288c0,0 -1,-1 -2,-1 0,0 -1,1 -1,1 0,1 1,2 1,2 1,0 2,-1 2,-2z"/>
    <path id="1" class="fil1" d="M290 288c0,1 -1,2 -2,2 0,0 -1,-1 -1,-2 0,0 1,-1 1,-1 1,0 2,1 2,1zm1 0c0,-1 -1,-2 -3,-2 -1,0 -2,1 -2,2 0,2 1,3 2,3 2,0 3,-1 3,-3z"/>
    <path id="2" class="fil1" d="M291 288c0,2 -1,3 -3,3 -1,0 -2,-1 -2,-3 0,-1 1,-2 2,-2 2,0 3,1 3,2zm1 0c0,-2 -1,-3 -4,-3 -2,0 -3,1 -3,3 0,3 1,4 3,4 3,0 4,-1 4,-4z"/>
    <path id="3" class="fil2" d="M292 288c0,2 -2,4 -4,4 -1,0 -3,-2 -3,-4 0,-1 2,-3 3,-3 2,0 4,2 4,3zm1 0c0,-2 -2,-5 -5,-5 -2,0 -5,3 -5,5 0,3 3,5 5,5 3,0 5,-2 5,-5z"/>
    <path id="4" class="fil2" d="M293 288c0,3 -2,5 -5,5 -2,0 -4,-2 -4,-5 0,-2 2,-4 4,-4 3,0 5,2 5,4zm2 0c0,-3 -3,-6 -7,-6 -3,0 -6,3 -6,6 0,4 3,7 6,7 4,0 7,-3 7,-7z"/>
    <path id="5" class="fil3" d="M294 288c0,4 -2,6 -6,6 -3,0 -5,-2 -5,-6 0,-3 2,-5 5,-5 4,0 6,2 6,5zm2 0c0,-4 -4,-7 -8,-7 -4,0 -7,3 -7,7 0,4 3,8 7,8 4,0 8,-4 8,-8z"/>
    <path id="6" class="fil3" d="M295 288c0,4 -3,7 -7,7 -3,0 -6,-3 -6,-7 0,-3 3,-6 6,-6 4,0 7,3 7,6zm2 0c0,-4 -4,-8 -9,-8 -4,0 -8,4 -8,8 0,5 4,9 8,9 5,0 9,-4 9,-9z"/>
    <path id="7" class="fil4" d="M296 288c0,5 -3,8 -8,8 -4,0 -7,-3 -7,-8 0,-4 3,-7 7,-7 5,0 8,3 8,7zm2 0c0,-5 -4,-9 -10,-9 -5,0 -9,4 -9,9 0,6 4,10 9,10 6,0 10,-4 10,-10z"/>
    <path id="8" class="fil4" d="M297 288c0,5 -4,9 -9,9 -4,0 -8,-4 -8,-9 0,-4 4,-8 8,-8 5,0 9,4 9,8zm2 0c0,-5 -5,-10 -11,-10 -5,0 -10,5 -10,10 0,6 5,11 10,11 6,0 11,-5 11,-11z"/>
    <path id="9" class="fil5" d="M298 288c0,6 -4,10 -10,10 -5,0 -10,-4 -10,-10 0,-5 5,-10 10,-10 6,0 10,5 10,10zm2 0c0,-6 -5,-11 -12,-11 -6,0 -11,5 -11,11 0,7 5,12 11,12 7,0 12,-5 12,-12z"/>
    <path id="10" class="fil6" d="M300 288c0,7 -5,12 -12,12 -6,0 -11,-5 -11,-12 0,-6 5,-11 11,-11 7,0 12,5 12,11zm1 0c0,-7 -5,-12 -13,-12 -7,0 -12,5 -12,12 0,8 5,13 12,13 8,0 13,-5 13,-13z"/>
    <path id="11" class="fil6" d="M301 288c0,7 -6,13 -13,13 -6,0 -12,-6 -12,-13 0,-6 6,-12 12,-12 7,0 13,6 13,12zm1 0c0,-7 -6,-13 -14,-13 -7,0 -13,6 -13,13 0,8 6,14 13,14 8,0 14,-6 14,-14z"/>
    <path id="12" class="fil7" d="M302 288c0,8 -6,14 -14,14 -7,0 -13,-6 -13,-14 0,-7 6,-13 13,-13 8,0 14,6 14,13zm1 0c0,-8 -6,-15 -15,-15 -8,0 -15,7 -15,15 0,9 7,15 15,15 9,0 15,-6 15,-15z"/>
    <path id="13" class="fil7" d="M303 288c0,8 -7,15 -15,15 -7,0 -14,-7 -14,-15 0,-7 7,-14 14,-14 8,0 15,7 15,14zm2 0c0,-8 -8,-16 -17,-16 -8,0 -16,8 -16,16 0,9 8,17 16,17 9,0 17,-8 17,-17z"/>
    <path id="14" class="fil8" d="M304 288c0,9 -7,16 -16,16 -8,0 -15,-7 -15,-16 0,-8 7,-15 15,-15 9,0 16,7 16,15zm2 0c0,-9 -8,-17 -18,-17 -9,0 -17,8 -17,17 0,10 8,18 17,18 10,0 18,-8 18,-18z"/>
    <path id="15" class="fil8" d="M305 288c0,10 -7,17 -17,17 -9,0 -16,-7 -16,-17 0,-9 7,-16 16,-16 10,0 17,7 17,16zm2 0c0,-10 -8,-18 -19,-18 -10,0 -18,8 -18,18 0,11 8,19 18,19 11,0 19,-8 19,-19z"/>
    <path id="16" class="fil9" d="M306 288c0,10 -8,18 -18,18 -9,0 -17,-8 -17,-18 0,-9 8,-17 17,-17 10,0 18,8 18,17zm2 0c0,-10 -9,-19 -20,-19 -10,0 -19,9 -19,19 0,11 9,20 19,20 11,0 20,-9 20,-20z"/>
    <path id="17" class="fil9" d="M307 288c0,11 -8,19 -19,19 -10,0 -18,-8 -18,-19 0,-10 8,-18 18,-18 11,0 19,8 19,18zm2 0c0,-11 -9,-20 -21,-20 -11,0 -20,9 -20,20 0,12 9,21 20,21 12,0 21,-9 21,-21z"/>
    <path id="18" class="fil10" d="M308 288c0,12 -8,20 -20,20 -11,0 -19,-8 -19,-20 0,-11 8,-19 19,-19 12,0 20,8 20,19zm2 0c0,-11 -10,-21 -22,-21 -11,0 -21,10 -21,21 0,12 10,22 21,22 12,0 22,-10 22,-22z"/>
    <path id="19" class="fil11" d="M310 288c0,12 -10,22 -22,22 -11,0 -21,-10 -21,-22 0,-11 10,-21 21,-21 12,0 22,10 22,21zm1 0c0,-12 -10,-22 -23,-22 -12,0 -22,10 -22,22 0,13 10,23 22,23 13,0 23,-10 23,-23z"/>
    <path id="20" class="fil11" d="M311 288c0,13 -10,23 -23,23 -12,0 -22,-10 -22,-23 0,-12 10,-22 22,-22 13,0 23,10 23,22zm1 0c0,-13 -10,-23 -24,-23 -13,0 -23,10 -23,23 0,14 10,24 23,24 14,0 24,-10 24,-24z"/>
    <path id="21" class="fil12" d="M312 288c0,13 -11,24 -24,24 -12,0 -23,-11 -23,-24 0,-12 11,-23 23,-23 13,0 24,11 24,23zm1 0c0,-13 -11,-24 -25,-24 -13,0 -24,11 -24,24 0,14 11,25 24,25 14,0 25,-11 25,-25z"/>
    <path id="22" class="fil12" d="M313 288c0,14 -11,25 -25,25 -13,0 -24,-11 -24,-25 0,-13 11,-24 24,-24 14,0 25,11 25,24zm2 0c0,-14 -12,-26 -27,-26 -14,0 -26,12 -26,26 0,15 12,27 26,27 15,0 27,-12 27,-27z"/>
    <path id="23" class="fil13" d="M314 288c0,15 -11,26 -26,26 -14,0 -25,-11 -25,-26 0,-14 11,-25 25,-25 15,0 26,11 26,25zm2 0c0,-15 -12,-27 -28,-27 -15,0 -27,12 -27,27 0,16 12,28 27,28 16,0 28,-12 28,-28z"/>
    <path id="24" class="fil13" d="M315 288c0,15 -12,27 -27,27 -14,0 -26,-12 -26,-27 0,-14 12,-26 26,-26 15,0 27,12 27,26zm2 0c0,-15 -13,-28 -29,-28 -15,0 -28,13 -28,28 0,16 13,29 28,29 16,0 29,-13 29,-29z"/>
    <path id="25" class="fil14" d="M316 288c0,16 -12,28 -28,28 -15,0 -27,-12 -27,-28 0,-15 12,-27 27,-27 16,0 28,12 28,27zm2 0c0,-16 -13,-29 -30,-29 -16,0 -29,13 -29,29 0,17 13,30 29,30 17,0 30,-13 30,-30z"/>
    <path id="26" class="fil14" d="M317 288c0,16 -13,29 -29,29 -15,0 -28,-13 -28,-29 0,-15 13,-28 28,-28 16,0 29,13 29,28zm2 0c0,-16 -14,-30 -31,-30 -16,0 -30,14 -30,30 0,17 14,31 30,31 17,0 31,-14 31,-31z"/>
    <path id="27" class="fil15" d="M318 288c0,17 -13,30 -30,30 -16,0 -29,-13 -29,-30 0,-16 13,-29 29,-29 17,0 30,13 30,29zm2 0c0,-17 -14,-31 -32,-31 -17,0 -31,14 -31,31 0,18 14,32 31,32 18,0 32,-14 32,-32z"/>
    <path id="28" class="fil16" d="M320 288c0,18 -14,32 -32,32 -17,0 -31,-14 -31,-32 0,-17 14,-31 31,-31 18,0 32,14 32,31zm1 0c0,-18 -14,-32 -33,-32 -18,0 -32,14 -32,32 0,19 14,33 32,33 19,0 33,-14 33,-33z"/>
    <path id="29" class="fil16" d="M321 288c0,18 -15,33 -33,33 -17,0 -32,-15 -32,-33 0,-17 15,-32 32,-32 18,0 33,15 33,32zm1 0c0,-18 -15,-33 -34,-33 -18,0 -33,15 -33,33 0,19 15,34 33,34 19,0 34,-15 34,-34z"/>
    <path id="30" class="fil17" d="M322 288c0,19 -15,34 -34,34 -18,0 -33,-15 -33,-34 0,-18 15,-33 33,-33 19,0 34,15 34,33zm1 0c0,-19 -15,-34 -35,-34 -19,0 -34,15 -34,34 0,20 15,35 34,35 20,0 35,-15 35,-35z"/>
    <path id="31" class="fil17" d="M323 288c0,19 -16,35 -35,35 -19,0 -34,-16 -34,-35 0,-19 15,-34 34,-34 19,0 35,15 35,34zm2 0c0,-19 -17,-36 -37,-36 -19,0 -36,17 -36,36 0,20 17,37 36,37 20,0 37,-17 37,-37z"/>
    <path id="32" class="fil18" d="M324 288c0,20 -16,36 -36,36 -19,0 -35,-16 -35,-36 0,-19 16,-35 35,-35 20,0 36,16 36,35zm2 0c0,-20 -17,-37 -38,-37 -20,0 -37,17 -37,37 0,21 17,38 37,38 21,0 38,-17 38,-38z"/>
    <path id="33" class="fil18" d="M325 288c0,21 -16,37 -37,37 -20,0 -36,-16 -36,-37 0,-20 16,-36 36,-36 21,0 37,16 37,36zm2 0c0,-21 -17,-38 -39,-38 -21,0 -38,17 -38,38 0,22 17,39 38,39 22,0 39,-17 39,-39z"/>
    <path id="34" class="fil19" d="M326 288c0,21 -17,38 -38,38 -20,0 -37,-17 -37,-38 0,-20 17,-37 37,-37 21,0 38,17 38,37zm2 0c0,-21 -18,-39 -40,-39 -21,0 -39,18 -39,39 0,22 18,40 39,40 22,0 40,-18 40,-40z"/>
    <path id="35" class="fil19" d="M327 288c0,22 -17,39 -39,39 -21,0 -38,-17 -38,-39 0,-21 17,-38 38,-38 22,0 39,17 39,38zm2 0c0,-22 -18,-40 -41,-40 -22,0 -40,18 -40,40 0,23 18,41 40,41 23,0 41,-18 41,-41z"/>
    <path id="36" class="fil20" d="M328 288c0,23 -17,40 -40,40 -22,0 -39,-17 -39,-40 0,-22 17,-39 39,-39 23,0 40,17 40,39zm2 0c0,-23 -19,-41 -42,-41 -23,0 -41,18 -41,41 0,23 18,42 41,42 23,0 42,-19 42,-42z"/>
    <path id="37" class="fil21" d="M330 288c0,23 -19,42 -42,42 -22,0 -41,-19 -41,-42 0,-22 19,-41 41,-41 23,0 42,19 42,41zm1 0c0,-23 -19,-42 -43,-42 -23,0 -42,19 -42,42 0,24 19,43 42,43 24,0 43,-19 43,-43z"/>
    <path id="38" class="fil21" d="M331 288c0,24 -19,43 -43,43 -23,0 -42,-19 -42,-43 0,-23 19,-42 42,-42 24,0 43,19 43,42zm1 0c0,-24 -19,-43 -44,-43 -24,0 -43,19 -43,43 0,25 19,44 43,44 25,0 44,-19 44,-44z"/>
    <path id="39" class="fil22" d="M332 288c0,24 -20,44 -44,44 -23,0 -43,-20 -43,-44 0,-23 20,-43 43,-43 24,0 44,20 44,43zm1 0c0,-24 -20,-44 -45,-44 -24,0 -44,20 -44,44 0,25 20,45 44,45 25,0 45,-20 45,-45z"/>
    <path id="40" class="fil22" d="M333 288c0,25 -20,45 -45,45 -24,0 -44,-20 -44,-45 0,-24 20,-44 44,-44 25,0 45,20 45,44zm2 0c0,-25 -21,-46 -47,-46 -25,0 -46,21 -46,46 0,26 21,47 46,47 26,0 47,-21 47,-47z"/>
    <path id="41" class="fil23" d="M334 288c0,26 -20,46 -46,46 -25,0 -45,-20 -45,-46 0,-25 20,-45 45,-45 26,0 46,20 46,45zm2 0c0,-26 -21,-47 -48,-47 -26,0 -47,21 -47,47 0,27 21,48 47,48 27,0 48,-21 48,-48z"/>
    <path id="42" class="fil23" d="M335 288c0,26 -21,47 -47,47 -25,0 -46,-21 -46,-47 0,-25 21,-46 46,-46 26,0 47,21 47,46zm2 0c0,-26 -22,-48 -49,-48 -26,0 -48,22 -48,48 0,27 22,49 48,49 27,0 49,-22 49,-49z"/>
    <path id="43" class="fil24" d="M336 288c0,27 -21,48 -48,48 -26,0 -47,-21 -47,-48 0,-26 21,-47 47,-47 27,0 48,21 48,47zm2 0c0,-27 -22,-49 -50,-49 -27,0 -49,22 -49,49 0,28 22,50 49,50 28,0 50,-22 50,-50z"/>
    <path id="44" class="fil24" d="M337 288c0,27 -22,49 -49,49 -26,0 -48,-22 -48,-49 0,-26 22,-48 48,-48 27,0 49,22 49,48zm2 0c0,-27 -23,-50 -51,-50 -27,0 -50,23 -50,50 0,28 23,51 50,51 28,0 51,-23 51,-51z"/>
    <path id="45" class="fil25" d="M338 288c0,28 -22,50 -50,50 -27,0 -49,-22 -49,-50 0,-27 22,-49 49,-49 28,0 50,22 50,49zm2 0c0,-28 -23,-51 -52,-51 -28,0 -51,23 -51,51 0,29 23,52 51,52 29,0 52,-23 52,-52z"/>
    <path id="46" class="fil26" d="M340 288c0,29 -23,52 -52,52 -28,0 -51,-23 -51,-52 0,-28 23,-51 51,-51 29,0 52,23 52,51zm1 0c0,-29 -23,-52 -53,-52 -29,0 -52,23 -52,52 0,30 23,53 52,53 30,0 53,-23 53,-53z"/>
    <path id="47" class="fil26" d="M341 288c0,29 -24,53 -53,53 -28,0 -52,-24 -52,-53 0,-28 24,-52 52,-52 29,0 53,24 53,52zm1 0c0,-29 -24,-53 -54,-53 -29,0 -53,24 -53,53 0,30 24,54 53,54 30,0 54,-24 54,-54z"/>
    <path id="48" class="fil27" d="M342 288c0,30 -24,54 -54,54 -29,0 -53,-24 -53,-54 0,-29 24,-53 53,-53 30,0 54,24 54,53zm1 0c0,-30 -24,-54 -55,-54 -30,0 -54,24 -54,54 0,31 24,55 54,55 31,0 55,-24 55,-55z"/>
    <path id="49" class="fil27" d="M343 288c0,31 -24,55 -55,55 -30,0 -54,-24 -54,-55 0,-30 24,-54 54,-54 31,0 55,24 55,54zm2 0c0,-30 -26,-56 -57,-56 -30,0 -56,26 -56,56 0,31 26,57 56,57 31,0 57,-26 57,-57z"/>
    <path id="50" class="fil28" d="M344 288c0,31 -25,56 -56,56 -30,0 -55,-25 -55,-56 0,-30 25,-55 55,-55 31,0 56,25 56,55zm2 0c0,-31 -26,-57 -58,-57 -31,0 -57,26 -57,57 0,32 26,58 57,58 32,0 58,-26 58,-58z"/>
    <path id="51" class="fil28" d="M345 288c0,32 -25,57 -57,57 -31,0 -56,-25 -56,-57 0,-31 25,-56 56,-56 32,0 57,25 57,56zm2 0c0,-32 -26,-58 -59,-58 -32,0 -58,26 -58,58 0,33 26,59 58,59 33,0 59,-26 59,-59z"/>
    <path id="52" class="fil29" d="M346 288c0,32 -26,58 -58,58 -31,0 -57,-26 -57,-58 0,-31 26,-57 57,-57 32,0 58,26 58,57zm2 0c0,-32 -27,-59 -60,-59 -32,0 -59,27 -59,59 0,33 27,60 59,60 33,0 60,-27 60,-60z"/>
    <path id="53" class="fil29" d="M347 288c0,33 -26,59 -59,59 -32,0 -58,-26 -58,-59 0,-32 26,-58 58,-58 33,0 59,26 59,58zm2 0c0,-33 -27,-60 -61,-60 -33,0 -60,27 -60,60 0,34 27,61 60,61 34,0 61,-27 61,-61z"/>
    <path id="54" class="fil30" d="M348 288c0,34 -26,60 -60,60 -33,0 -59,-26 -59,-60 0,-33 26,-59 59,-59 34,0 60,26 60,59zm2 0c0,-34 -27,-61 -62,-61 -34,0 -61,27 -61,61 0,35 27,62 61,62 35,0 62,-27 62,-62z"/>
    <path id="55" class="fil31" d="M350 288c0,34 -28,62 -62,62 -33,0 -61,-28 -61,-62 0,-33 28,-61 61,-61 34,0 62,28 62,61zm1 0c0,-34 -28,-62 -63,-62 -34,0 -62,28 -62,62 0,35 28,63 62,63 35,0 63,-28 63,-63z"/>
    <path id="56" class="fil31" d="M351 288c0,35 -28,63 -63,63 -34,0 -62,-28 -62,-63 0,-34 28,-62 62,-62 35,0 63,28 63,62zm1 0c0,-35 -28,-63 -64,-63 -35,0 -63,28 -63,63 0,36 28,64 63,64 36,0 64,-28 64,-64z"/>
    <path id="57" class="fil32" d="M352 288c0,35 -29,64 -64,64 -34,0 -63,-29 -63,-64 0,-34 29,-63 63,-63 35,0 64,29 64,63zm1 0c0,-35 -29,-64 -65,-64 -35,0 -64,29 -64,64 0,36 29,65 64,65 36,0 65,-29 65,-65z"/>
    <path id="58" class="fil32" d="M353 288c0,36 -29,65 -65,65 -35,0 -64,-29 -64,-65 0,-35 29,-64 64,-64 36,0 65,29 65,64zm2 0c0,-36 -30,-66 -67,-66 -36,0 -66,30 -66,66 0,37 30,67 66,67 37,0 67,-30 67,-67z"/>
    <path id="59" class="fil33" d="M354 288c0,37 -29,66 -66,66 -36,0 -65,-29 -65,-66 0,-36 29,-65 65,-65 37,0 66,29 66,65zm2 0c0,-37 -30,-67 -68,-67 -37,0 -67,30 -67,67 0,38 30,68 67,68 38,0 68,-30 68,-68z"/>
    <path id="60" class="fil33" d="M355 288c0,37 -30,67 -67,67 -36,0 -66,-30 -66,-67 0,-36 30,-66 66,-66 37,0 67,30 67,66zm2 0c0,-37 -31,-68 -69,-68 -37,0 -68,31 -68,68 0,38 31,69 68,69 38,0 69,-31 69,-69z"/>
    <path id="61" class="fil34" d="M356 288c0,38 -30,68 -68,68 -37,0 -67,-30 -67,-68 0,-37 30,-67 67,-67 38,0 68,30 68,67zm2 0c0,-38 -31,-69 -70,-69 -38,0 -69,31 -69,69 0,39 31,70 69,70 39,0 70,-31 70,-70z"/>
    <path id="62" class="fil34" d="M357 288c0,38 -31,69 -69,69 -38,0 -68,-31 -68,-69 0,-38 30,-68 68,-68 38,0 69,30 69,68zm2 0c0,-38 -32,-70 -71,-70 -38,0 -70,32 -70,70 0,39 32,71 70,71 39,0 71,-32 71,-71z"/>
    <path id="63" class="fil35" d="M358 288c0,39 -31,70 -70,70 -38,0 -69,-31 -69,-70 0,-38 31,-69 69,-69 39,0 70,31 70,69zm2 0c0,-39 -32,-71 -72,-71 -39,0 -71,32 -71,71 0,40 32,72 71,72 40,0 72,-32 72,-72z"/>
    <path id="64" class="fil36" d="M360 288c0,40 -32,72 -72,72 -39,0 -71,-32 -71,-72 0,-39 32,-71 71,-71 40,0 72,32 72,71zm1 0c0,-40 -32,-72 -73,-72 -40,0 -72,32 -72,72 0,41 32,73 72,73 41,0 73,-32 73,-73z"/>
    <path id="65" class="fil36" d="M361 288c0,40 -33,73 -73,73 -39,0 -72,-33 -72,-73 0,-39 33,-72 72,-72 40,0 73,33 73,72zm1 0c0,-40 -33,-73 -74,-73 -40,0 -73,33 -73,73 0,41 33,74 73,74 41,0 74,-33 74,-74z"/>
    <path id="66" class="fil37" d="M362 288c0,41 -33,74 -74,74 -40,0 -73,-33 -73,-74 0,-40 33,-73 73,-73 41,0 74,33 74,73zm1 0c0,-41 -33,-74 -75,-74 -41,0 -74,33 -74,74 0,42 33,75 74,75 42,0 75,-33 75,-75z"/>
    <path id="67" class="fil37" d="M363 288c0,42 -33,75 -75,75 -41,0 -74,-33 -74,-75 0,-41 33,-74 74,-74 42,0 75,33 75,74zm2 0c0,-42 -35,-76 -77,-76 -42,0 -76,34 -76,76 0,42 34,77 76,77 42,0 77,-35 77,-77z"/>
    <path id="68" class="fil38" d="M364 288c0,42 -34,76 -76,76 -41,0 -75,-34 -75,-76 0,-41 34,-75 75,-75 42,0 76,34 76,75zm2 0c0,-42 -35,-77 -78,-77 -42,0 -77,35 -77,77 0,43 35,78 77,78 43,0 78,-35 78,-78z"/>
    <path id="69" class="fil38" d="M365 288c0,43 -34,77 -77,77 -42,0 -76,-34 -76,-77 0,-42 34,-76 76,-76 43,0 77,34 77,76zm2 0c0,-43 -35,-78 -79,-78 -43,0 -78,35 -78,78 0,44 35,79 78,79 44,0 79,-35 79,-79z"/>
    <path id="70" class="fil39" d="M366 288c0,43 -35,78 -78,78 -42,0 -77,-35 -77,-78 0,-42 35,-77 77,-77 43,0 78,35 78,77zm2 0c0,-43 -36,-79 -80,-79 -43,0 -79,36 -79,79 0,44 36,80 79,80 44,0 80,-36 80,-80z"/>
    <path id="71" class="fil39" d="M367 288c0,44 -35,79 -79,79 -43,0 -78,-35 -78,-79 0,-43 35,-78 78,-78 44,0 79,35 79,78zm2 0c0,-44 -36,-80 -81,-80 -44,0 -80,36 -80,80 0,45 36,81 80,81 45,0 81,-36 81,-81z"/>
    <path id="72" class="fil40" d="M368 288c0,45 -35,80 -80,80 -44,0 -79,-35 -79,-80 0,-44 35,-79 79,-79 45,0 80,35 80,79zm2 0c0,-45 -36,-81 -82,-81 -45,0 -81,36 -81,81 0,46 36,82 81,82 46,0 82,-36 82,-82z"/>
    <path id="73" class="fil41" d="M370 288c0,45 -37,82 -82,82 -44,0 -81,-37 -81,-82 0,-44 37,-81 81,-81 45,0 82,37 82,81zm1 0c0,-45 -37,-82 -83,-82 -45,0 -82,37 -82,82 0,46 37,83 82,83 46,0 83,-37 83,-83z"/>
    <path id="74" class="fil41" d="M371 288c0,46 -37,83 -83,83 -45,0 -82,-37 -82,-83 0,-45 37,-82 82,-82 46,0 83,37 83,82zm1 0c0,-46 -37,-83 -84,-83 -46,0 -83,37 -83,83 0,47 37,84 83,84 47,0 84,-37 84,-84z"/>
    <path id="75" class="fil42" d="M372 288c0,46 -38,84 -84,84 -45,0 -83,-38 -83,-84 0,-45 38,-83 83,-83 46,0 84,38 84,83zm1 0c0,-46 -38,-84 -85,-84 -46,0 -84,38 -84,84 0,47 38,85 84,85 47,0 85,-38 85,-85z"/>
    <path id="76" class="fil42" d="M373 288c0,47 -38,85 -85,85 -46,0 -84,-38 -84,-85 0,-46 38,-84 84,-84 47,0 85,38 85,84zm2 0c0,-47 -39,-86 -87,-86 -47,0 -86,39 -86,86 0,48 39,87 86,87 48,0 87,-39 87,-87z"/>
    <path id="77" class="fil43" d="M374 288c0,48 -38,86 -86,86 -47,0 -85,-38 -85,-86 0,-47 38,-85 85,-85 48,0 86,38 86,85zm2 0c0,-48 -39,-87 -88,-87 -48,0 -87,39 -87,87 0,49 39,88 87,88 49,0 88,-39 88,-88z"/>
    <path id="78" class="fil43" d="M375 288c0,48 -39,87 -87,87 -47,0 -86,-39 -86,-87 0,-47 39,-86 86,-86 48,0 87,39 87,86zm2 0c0,-48 -40,-88 -89,-88 -48,0 -88,40 -88,88 0,49 40,89 88,89 49,0 89,-40 89,-89z"/>
    <path id="79" class="fil44" d="M376 288c0,49 -39,88 -88,88 -48,0 -87,-39 -87,-88 0,-48 39,-87 87,-87 49,0 88,39 88,87zm2 0c0,-49 -40,-89 -90,-89 -49,0 -89,40 -89,89 0,50 40,90 89,90 50,0 90,-40 90,-90z"/>
    <path id="80" class="fil44" d="M377 288c0,50 -39,89 -89,89 -49,0 -88,-39 -88,-89 0,-49 39,-88 88,-88 50,0 89,39 89,88zm2 0c0,-49 -41,-90 -91,-90 -49,0 -90,41 -90,90 0,50 41,91 90,91 50,0 91,-41 91,-91z"/>
    <path id="81" class="fil45" d="M378 288c0,50 -40,90 -90,90 -49,0 -89,-40 -89,-90 0,-49 40,-89 89,-89 50,0 90,40 90,89zm2 0c0,-50 -41,-91 -92,-91 -50,0 -91,41 -91,91 0,51 41,92 91,92 51,0 92,-41 92,-92z"/>
    <path id="82" class="fil46" d="M380 288c0,51 -41,92 -92,92 -50,0 -91,-41 -91,-92 0,-50 41,-91 91,-91 51,0 92,41 92,91zm1 0c0,-51 -41,-92 -93,-92 -51,0 -92,41 -92,92 0,52 41,93 92,93 52,0 93,-41 93,-93z"/>
    <path id="83" class="fil46" d="M381 288c0,51 -42,93 -93,93 -50,0 -92,-42 -92,-93 0,-50 42,-92 92,-92 51,0 93,42 93,92zm1 0c0,-51 -42,-93 -94,-93 -51,0 -93,42 -93,93 0,52 42,94 93,94 52,0 94,-42 94,-94z"/>
    <path id="84" class="fil47" d="M382 288c0,52 -42,94 -94,94 -51,0 -93,-42 -93,-94 0,-51 42,-93 93,-93 52,0 94,42 94,93zm1 0c0,-52 -42,-94 -95,-94 -52,0 -94,42 -94,94 0,53 42,95 94,95 53,0 95,-42 95,-95z"/>
    <path id="85" class="fil47" d="M383 288c0,53 -42,95 -95,95 -52,0 -94,-42 -94,-95 0,-52 42,-94 94,-94 53,0 95,42 95,94zm1 0c0,-53 -42,-96 -96,-96 -53,0 -96,43 -96,96 0,54 43,96 96,96 54,0 96,-42 96,-96z"/>
    <path id="86" class="fil48" d="M384 288c0,53 -43,96 -96,96 -52,0 -95,-43 -95,-96 0,-52 43,-95 95,-95 53,0 96,43 96,95zm2 0c0,-53 -44,-97 -98,-97 -53,0 -97,44 -97,97 0,54 44,98 97,98 54,0 98,-44 98,-98z"/>
    <path id="87" class="fil48" d="M385 288c0,54 -43,97 -97,97 -53,0 -96,-43 -96,-97 0,-53 43,-96 96,-96 54,0 97,43 97,96zm2 0c0,-54 -44,-98 -99,-98 -54,0 -98,44 -98,98 0,55 44,99 98,99 55,0 99,-44 99,-99z"/>
    <path id="88" class="fil49" d="M386 288c0,54 -44,98 -98,98 -53,0 -97,-44 -97,-98 0,-53 44,-97 97,-97 54,0 98,44 98,97zm2 0c0,-54 -45,-99 -100,-99 -54,0 -99,45 -99,99 0,55 45,100 99,100 55,0 100,-45 100,-100z"/>
    <path id="89" class="fil49" d="M387 288c0,55 -44,99 -99,99 -54,0 -98,-44 -98,-99 0,-54 44,-98 98,-98 55,0 99,44 99,98zm2 0c0,-55 -45,-100 -101,-100 -55,0 -100,45 -100,100 0,56 45,101 100,101 56,0 101,-45 101,-101z"/>
    <path id="90" class="fil50" d="M388 288c0,56 -44,100 -100,100 -55,0 -99,-44 -99,-100 0,-55 44,-99 99,-99 56,0 100,44 100,99zm2 0c0,-56 -45,-101 -102,-101 -56,0 -101,45 -101,101 0,57 45,102 101,102 57,0 102,-45 102,-102z"/>
    <path id="91" class="fil51" d="M389 288c0,56 -45,101 -101,101 -55,0 -101,-45 -101,-101 0,-55 46,-101 101,-101 56,0 101,46 101,101zm2 0c0,-56 -46,-102 -103,-102 -56,0 -102,46 -102,102 0,57 46,103 102,103 57,0 103,-46 103,-103z"/>
    <path id="92" class="fil51" d="M391 288c0,57 -46,103 -103,103 -56,0 -102,-46 -102,-103 0,-56 46,-102 102,-102 57,0 103,46 103,102zm1 0c0,-57 -46,-103 -104,-103 -57,0 -103,46 -103,103 0,58 46,104 103,104 58,0 104,-46 104,-104z"/>
    <path id="93" class="fil52" d="M392 288c0,57 -47,104 -104,104 -57,0 -103,-47 -103,-104 0,-57 46,-103 103,-103 57,0 104,46 104,103zm1 0c0,-57 -47,-104 -105,-104 -57,0 -104,47 -104,104 0,58 47,105 104,105 58,0 105,-47 105,-105z"/>
    <path id="94" class="fil52" d="M393 288c0,58 -47,105 -105,105 -57,0 -104,-47 -104,-105 0,-57 47,-104 104,-104 58,0 105,47 105,104zm1 0c0,-58 -47,-106 -106,-106 -58,0 -106,48 -106,106 0,59 48,106 106,106 59,0 106,-47 106,-106z"/>
    <path id="95" class="fil53" d="M394 288c0,59 -47,106 -106,106 -58,0 -105,-47 -105,-106 0,-58 47,-105 105,-105 59,0 106,47 106,105zm2 0c0,-59 -48,-107 -108,-107 -59,0 -107,48 -107,107 0,60 48,108 107,108 60,0 108,-48 108,-108z"/>
    <path id="96" class="fil53" d="M395 288c0,59 -48,107 -107,107 -58,0 -106,-48 -106,-107 0,-58 48,-106 106,-106 59,0 107,48 107,106zm2 0c0,-59 -49,-108 -109,-108 -59,0 -108,49 -108,108 0,60 49,109 108,109 60,0 109,-49 109,-109z"/>
    <path id="97" class="fil54" d="M396 288c0,60 -48,108 -108,108 -59,0 -107,-48 -107,-108 0,-59 48,-107 107,-107 60,0 108,48 108,107zm2 0c0,-60 -49,-109 -110,-109 -60,0 -109,49 -109,109 0,61 49,110 109,110 61,0 110,-49 110,-110z"/>
    <path id="98" class="fil54" d="M397 288c0,61 -48,109 -109,109 -60,0 -108,-48 -108,-109 0,-60 48,-108 108,-108 61,0 109,48 109,108zm2 0c0,-61 -50,-110 -111,-110 -61,0 -110,49 -110,110 0,61 49,111 110,111 61,0 111,-50 111,-111z"/>
    <path id="99" class="fil55" d="M398 288c0,61 -49,110 -110,110 -60,0 -109,-49 -109,-110 0,-60 49,-109 109,-109 61,0 110,49 110,109zm2 0c0,-61 -50,-111 -112,-111 -61,0 -111,50 -111,111 0,62 50,112 111,112 62,0 112,-50 112,-112z"/>
    <path id="100" class="fil56" d="M399 288c0,62 -49,111 -111,111 -61,0 -111,-49 -111,-111 0,-61 50,-111 111,-111 62,0 111,50 111,111zm2 0c0,-62 -50,-112 -113,-112 -62,0 -112,50 -112,112 0,63 50,113 112,113 63,0 113,-50 113,-113z"/>
    <path id="101" class="fil56" d="M401 288c0,62 -51,113 -113,113 -61,0 -112,-51 -112,-113 0,-61 51,-112 112,-112 62,0 113,51 113,112zm1 0c0,-62 -51,-113 -114,-113 -62,0 -113,51 -113,113 0,63 51,114 113,114 63,0 114,-51 114,-114z"/>
    <path id="102" class="fil57" d="M402 288c0,63 -51,114 -114,114 -62,0 -113,-51 -113,-114 0,-62 51,-113 113,-113 63,0 114,51 114,113zm1 0c0,-63 -51,-114 -115,-114 -63,0 -114,51 -114,114 0,64 51,115 114,115 64,0 115,-51 115,-115z"/>
    <path id="103" class="fil57" d="M403 288c0,64 -51,115 -115,115 -63,0 -114,-51 -114,-115 0,-63 51,-114 114,-114 64,0 115,51 115,114zm1 0c0,-64 -51,-116 -116,-116 -64,0 -116,52 -116,116 0,65 52,116 116,116 65,0 116,-51 116,-116z"/>
    <path id="104" class="fil58" d="M404 288c0,64 -52,116 -116,116 -63,0 -115,-52 -115,-116 0,-63 52,-115 115,-115 64,0 116,52 116,115zm2 0c0,-64 -53,-117 -118,-117 -64,0 -117,53 -117,117 0,65 53,118 117,118 65,0 118,-53 118,-118z"/>
    <path id="105" class="fil58" d="M405 288c0,65 -52,117 -117,117 -64,0 -116,-52 -116,-117 0,-64 52,-116 116,-116 65,0 117,52 117,116zm2 0c0,-65 -53,-118 -119,-118 -65,0 -118,53 -118,118 0,66 53,119 118,119 66,0 119,-53 119,-119z"/>
    <path id="106" class="fil59" d="M406 288c0,65 -53,118 -118,118 -65,0 -117,-53 -117,-118 0,-65 52,-117 117,-117 65,0 118,52 118,117zm2 0c0,-65 -54,-119 -120,-119 -65,0 -119,54 -119,119 0,66 54,120 119,120 66,0 120,-54 120,-120z"/>
    <path id="107" class="fil59" d="M407 288c0,66 -53,119 -119,119 -65,0 -118,-53 -118,-119 0,-65 53,-118 118,-118 66,0 119,53 119,118zm2 0c0,-66 -54,-120 -121,-120 -66,0 -120,54 -120,120 0,67 54,121 120,121 67,0 121,-54 121,-121z"/>
    <path id="108" class="fil60" d="M408 288c0,67 -53,120 -120,120 -66,0 -119,-53 -119,-120 0,-66 53,-119 119,-119 67,0 120,53 120,119zm2 0c0,-67 -54,-121 -122,-121 -67,0 -121,54 -121,121 0,68 54,122 121,122 68,0 122,-54 122,-122z"/>
    <path id="109" class="fil61" d="M409 288c0,67 -54,121 -121,121 -66,0 -121,-54 -121,-121 0,-66 55,-121 121,-121 67,0 121,55 121,121zm2 0c0,-67 -55,-122 -123,-122 -67,0 -122,55 -122,122 0,68 55,123 122,123 68,0 123,-55 123,-123z"/>
    <path id="110" class="fil61" d="M411 288c0,68 -55,123 -123,123 -67,0 -122,-55 -122,-123 0,-67 55,-122 122,-122 68,0 123,55 123,122zm1 0c0,-68 -55,-123 -124,-123 -68,0 -123,55 -123,123 0,69 55,124 123,124 69,0 124,-55 124,-124z"/>
    <path id="111" class="fil62" d="M412 288c0,69 -55,124 -124,124 -68,0 -123,-55 -123,-124 0,-68 55,-123 123,-123 69,0 124,55 124,123zm1 0c0,-68 -56,-124 -125,-124 -68,0 -124,56 -124,124 0,69 56,125 124,125 69,0 125,-56 125,-125z"/>
    <path id="112" class="fil62" d="M413 288c0,69 -56,125 -125,125 -68,0 -124,-56 -124,-125 0,-68 56,-124 124,-124 69,0 125,56 125,124zm1 0c0,-69 -56,-126 -126,-126 -69,0 -126,57 -126,126 0,70 57,126 126,126 70,0 126,-56 126,-126z"/>
    <path id="113" class="fil63" d="M414 288c0,70 -56,126 -126,126 -69,0 -125,-56 -125,-126 0,-69 56,-125 125,-125 70,0 126,56 126,125zm2 0c0,-70 -57,-127 -128,-127 -70,0 -127,57 -127,127 0,71 57,128 127,128 71,0 128,-57 128,-128z"/>
    <path id="114" class="fil63" d="M415 288c0,70 -57,127 -127,127 -69,0 -126,-57 -126,-127 0,-69 57,-126 126,-126 70,0 127,57 127,126zm2 0c0,-70 -58,-128 -129,-128 -70,0 -128,58 -128,128 0,71 58,129 128,129 71,0 129,-58 129,-129z"/>
    <path id="115" class="fil64" d="M416 288c0,71 -57,128 -128,128 -70,0 -127,-57 -127,-128 0,-70 57,-127 127,-127 71,0 128,57 128,127zm2 0c0,-71 -58,-129 -130,-129 -71,0 -129,58 -129,129 0,72 58,130 129,130 72,0 130,-58 130,-130z"/>
    <path id="116" class="fil64" d="M417 288c0,72 -57,129 -129,129 -71,0 -128,-57 -128,-129 0,-71 57,-128 128,-128 72,0 129,57 129,128zm2 0c0,-72 -58,-130 -131,-130 -72,0 -130,58 -130,130 0,73 58,131 130,131 73,0 131,-58 131,-131z"/>
    <path id="117" class="fil65" d="M418 288c0,72 -58,130 -130,130 -71,0 -129,-58 -129,-130 0,-71 58,-129 129,-129 72,0 130,58 130,129zm2 0c0,-72 -59,-131 -132,-131 -72,0 -131,59 -131,131 0,73 59,132 131,132 73,0 132,-59 132,-132z"/>
    <path id="118" class="fil66" d="M419 288c0,73 -58,131 -131,131 -72,0 -131,-58 -131,-131 0,-72 59,-131 131,-131 73,0 131,59 131,131zm2 0c0,-73 -59,-132 -133,-132 -73,0 -132,59 -132,132 0,74 59,133 132,133 74,0 133,-59 133,-133z"/>
    <path id="119" class="fil66" d="M421 288c0,73 -60,133 -133,133 -72,0 -132,-60 -132,-133 0,-72 60,-132 132,-132 73,0 133,60 133,132zm1 0c0,-73 -60,-133 -134,-133 -73,0 -133,60 -133,133 0,74 60,134 133,134 74,0 134,-60 134,-134z"/>
    <path id="120" class="fil67" d="M422 288c0,74 -60,134 -134,134 -73,0 -133,-60 -133,-134 0,-73 60,-133 133,-133 74,0 134,60 134,133zm1 0c0,-74 -60,-134 -135,-134 -74,0 -134,60 -134,134 0,75 60,135 134,135 75,0 135,-60 135,-135z"/>
    <path id="121" class="fil67" d="M423 288c0,75 -60,135 -135,135 -74,0 -134,-60 -134,-135 0,-74 60,-134 134,-134 75,0 135,60 135,134zm1 0c0,-75 -60,-135 -136,-135 -75,0 -135,60 -135,135 0,76 60,136 135,136 76,0 136,-60 136,-136z"/>
    <path id="122" class="fil68" d="M424 288c0,75 -61,136 -136,136 -74,0 -135,-61 -135,-136 0,-74 61,-135 135,-135 75,0 136,61 136,135zm2 0c0,-75 -62,-137 -138,-137 -75,0 -137,62 -137,137 0,76 62,138 137,138 76,0 138,-62 138,-138z"/>
    <path id="123" class="fil68" d="M425 288c0,76 -61,137 -137,137 -75,0 -136,-61 -136,-137 0,-75 61,-136 136,-136 76,0 137,61 137,136zm2 0c0,-76 -62,-138 -139,-138 -76,0 -138,62 -138,138 0,77 62,139 138,139 77,0 139,-62 139,-139z"/>
    <path id="124" class="fil69" d="M426 288c0,76 -62,138 -138,138 -76,0 -137,-62 -137,-138 0,-76 61,-137 137,-137 76,0 138,61 138,137zm2 0c0,-76 -63,-139 -140,-139 -76,0 -139,63 -139,139 0,77 63,140 139,140 77,0 140,-63 140,-140z"/>
    <path id="125" class="fil69" d="M427 288c0,77 -62,139 -139,139 -76,0 -138,-62 -138,-139 0,-76 62,-138 138,-138 77,0 139,62 139,138zm2 0c0,-77 -63,-140 -141,-140 -77,0 -140,63 -140,140 0,78 63,141 140,141 78,0 141,-63 141,-141z"/>
    <path id="126" class="fil70" d="M428 288c0,78 -62,140 -140,140 -77,0 -139,-62 -139,-140 0,-77 62,-139 139,-139 78,0 140,62 140,139zm2 0c0,-78 -63,-141 -142,-141 -78,0 -141,63 -141,141 0,79 63,142 141,142 79,0 142,-63 142,-142z"/>
    <path id="127" class="fil71" d="M429 288c0,78 -63,141 -141,141 -77,0 -140,-63 -140,-141 0,-77 63,-140 140,-140 78,0 141,63 141,140zm2 0c0,-78 -64,-142 -143,-142 -78,0 -142,64 -142,142 0,79 64,143 142,143 79,0 143,-64 143,-143z"/>
    <path id="128" class="fil71" d="M431 288c0,79 -64,143 -143,143 -78,0 -142,-64 -142,-143 0,-78 64,-142 142,-142 79,0 143,64 143,142zm1 0c0,-79 -64,-143 -144,-143 -79,0 -143,64 -143,143 0,80 64,144 143,144 80,0 144,-64 144,-144z"/>
    <path id="129" class="fil72" d="M432 288c0,80 -64,144 -144,144 -79,0 -143,-64 -143,-144 0,-79 64,-143 143,-143 80,0 144,64 144,143zm1 0c0,-80 -65,-144 -145,-144 -80,0 -144,64 -144,144 0,80 64,145 144,145 80,0 145,-65 145,-145z"/>
    <path id="130" class="fil72" d="M433 288c0,80 -65,145 -145,145 -79,0 -144,-65 -144,-145 0,-79 65,-144 144,-144 80,0 145,65 145,144zm1 0c0,-80 -65,-145 -146,-145 -80,0 -145,65 -145,145 0,81 65,146 145,146 81,0 146,-65 146,-146z"/>
    <path id="131" class="fil73" d="M434 288c0,81 -65,146 -146,146 -80,0 -145,-65 -145,-146 0,-80 65,-145 145,-145 81,0 146,65 146,145zm2 0c0,-81 -66,-147 -148,-147 -81,0 -147,66 -147,147 0,82 66,148 147,148 82,0 148,-66 148,-148z"/>
    <path id="132" class="fil73" d="M435 288c0,81 -66,147 -147,147 -80,0 -146,-66 -146,-147 0,-80 66,-146 146,-146 81,0 147,66 147,146zm2 0c0,-81 -67,-148 -149,-148 -81,0 -148,67 -148,148 0,82 67,149 148,149 82,0 149,-67 149,-149z"/>
    <path id="133" class="fil74" d="M436 288c0,82 -66,148 -148,148 -81,0 -147,-66 -147,-148 0,-81 66,-147 147,-147 82,0 148,66 148,147zm2 0c0,-82 -67,-149 -150,-149 -82,0 -149,67 -149,149 0,83 67,150 149,150 83,0 150,-67 150,-150z"/>
    <path id="134" class="fil74" d="M437 288c0,83 -66,149 -149,149 -82,0 -148,-66 -148,-149 0,-82 66,-148 148,-148 83,0 149,66 149,148zm2 0c0,-83 -67,-150 -151,-150 -83,0 -150,67 -150,150 0,84 67,151 150,151 84,0 151,-67 151,-151z"/>
    <path id="135" class="fil75" d="M438 288c0,83 -67,150 -150,150 -82,0 -149,-67 -149,-150 0,-82 67,-149 149,-149 83,0 150,67 150,149zm2 0c0,-83 -68,-151 -152,-151 -83,0 -151,68 -151,151 0,84 68,152 151,152 84,0 152,-68 152,-152z"/>
    <path id="136" class="fil76" d="M439 288c0,84 -67,151 -151,151 -83,0 -150,-67 -150,-151 0,-83 67,-150 150,-150 84,0 151,67 151,150zm2 0c0,-84 -68,-152 -153,-152 -84,0 -152,68 -152,152 0,85 68,153 152,153 85,0 153,-68 153,-153z"/>
    <path id="137" class="fil76" d="M441 288c0,84 -69,153 -153,153 -84,0 -152,-69 -152,-153 0,-84 68,-152 152,-152 84,0 153,68 153,152zm1 0c0,-84 -69,-153 -154,-153 -84,0 -153,69 -153,153 0,85 69,154 153,154 85,0 154,-69 154,-154z"/>
    <path id="138" class="fil77" d="M442 288c0,85 -69,154 -154,154 -84,0 -153,-69 -153,-154 0,-84 69,-153 153,-153 85,0 154,69 154,153zm1 0c0,-85 -69,-154 -155,-154 -85,0 -154,69 -154,154 0,86 69,155 154,155 86,0 155,-69 155,-155z"/>
    <path id="139" class="fil77" d="M443 288c0,86 -69,155 -155,155 -85,0 -154,-69 -154,-155 0,-85 69,-154 154,-154 86,0 155,69 155,154zm1 0c0,-86 -69,-155 -156,-155 -86,0 -155,69 -155,155 0,87 69,156 155,156 87,0 156,-69 156,-156z"/>
    <path id="140" class="fil78" d="M444 288c0,86 -70,156 -156,156 -85,0 -155,-70 -155,-156 0,-85 70,-155 155,-155 86,0 156,70 156,155zm2 0c0,-86 -71,-157 -158,-157 -86,0 -157,71 -157,157 0,87 71,158 157,158 87,0 158,-71 158,-158z"/>
    <path id="141" class="fil78" d="M445 288c0,87 -70,157 -157,157 -86,0 -156,-70 -156,-157 0,-86 70,-156 156,-156 87,0 157,70 157,156zm2 0c0,-87 -71,-158 -159,-158 -87,0 -158,71 -158,158 0,88 71,159 158,159 88,0 159,-71 159,-159z"/>
    <path id="142" class="fil79" d="M446 288c0,88 -70,158 -158,158 -87,0 -157,-70 -157,-158 0,-87 70,-157 157,-157 88,0 158,70 158,157zm2 0c0,-87 -72,-159 -160,-159 -87,0 -159,72 -159,159 0,88 72,160 159,160 88,0 160,-72 160,-160z"/>
    <path id="143" class="fil79" d="M447 288c0,88 -71,159 -159,159 -87,0 -158,-71 -158,-159 0,-87 71,-158 158,-158 88,0 159,71 159,158zm2 0c0,-88 -72,-160 -161,-160 -88,0 -160,72 -160,160 0,89 72,161 160,161 89,0 161,-72 161,-161z"/>
    <path id="144" class="fil80" d="M448 288c0,89 -71,160 -160,160 -88,0 -159,-71 -159,-160 0,-88 71,-159 159,-159 89,0 160,71 160,159zm2 0c0,-89 -72,-161 -162,-161 -89,0 -161,72 -161,161 0,90 72,162 161,162 90,0 162,-72 162,-162z"/>
    <path id="145" class="fil81" d="M449 288c0,89 -72,161 -161,161 -88,0 -160,-72 -160,-161 0,-88 72,-160 160,-160 89,0 161,72 161,160zm2 0c0,-89 -73,-162 -163,-162 -89,0 -162,73 -162,162 0,90 73,163 162,163 90,0 163,-73 163,-163z"/>
    <path id="146" class="fil81" d="M451 288c0,90 -73,163 -163,163 -89,0 -162,-73 -162,-163 0,-89 73,-162 162,-162 90,0 163,73 163,162zm1 0c0,-90 -73,-163 -164,-163 -90,0 -163,73 -163,163 0,91 73,164 163,164 91,0 164,-73 164,-164z"/>
    <path id="147" class="fil82" d="M452 288c0,91 -73,164 -164,164 -90,0 -163,-73 -163,-164 0,-90 73,-163 163,-163 91,0 164,73 164,163zm1 0c0,-91 -73,-164 -165,-164 -91,0 -164,73 -164,164 0,92 73,165 164,165 92,0 165,-73 165,-165z"/>
    <path id="148" class="fil82" d="M453 288c0,91 -74,165 -165,165 -90,0 -164,-74 -164,-165 0,-90 74,-164 164,-164 91,0 165,74 165,164zm1 0c0,-91 -74,-165 -166,-165 -91,0 -165,74 -165,165 0,92 74,166 165,166 92,0 166,-74 166,-166z"/>
    <path id="149" class="fil83" d="M454 288c0,92 -74,166 -166,166 -91,0 -165,-74 -165,-166 0,-91 74,-165 165,-165 92,0 166,74 166,165zm2 0c0,-92 -75,-167 -168,-167 -92,0 -167,75 -167,167 0,93 75,168 167,168 93,0 168,-75 168,-168z"/>
    <path id="150" class="fil83" d="M455 288c0,92 -75,167 -167,167 -91,0 -166,-75 -166,-167 0,-91 75,-166 166,-166 92,0 167,75 167,166zm2 0c0,-92 -76,-168 -169,-168 -92,0 -168,76 -168,168 0,93 76,169 168,169 93,0 169,-76 169,-169z"/>
    <path id="151" class="fil84" d="M456 288c0,93 -75,168 -168,168 -92,0 -167,-75 -167,-168 0,-92 75,-167 167,-167 93,0 168,75 168,167zm2 0c0,-93 -76,-169 -170,-169 -93,0 -169,76 -169,169 0,94 76,170 169,170 94,0 170,-76 170,-170z"/>
    <path id="152" class="fil84" d="M457 288c0,94 -75,169 -169,169 -93,0 -168,-75 -168,-169 0,-93 75,-168 168,-168 94,0 169,75 169,168zm2 0c0,-94 -76,-170 -171,-170 -94,0 -170,76 -170,170 0,95 76,171 170,171 95,0 171,-76 171,-171z"/>
    <path id="153" class="fil85" d="M458 288c0,94 -76,170 -170,170 -93,0 -169,-76 -169,-170 0,-93 76,-169 169,-169 94,0 170,76 170,169zm2 0c0,-94 -77,-171 -172,-171 -94,0 -171,77 -171,171 0,95 77,172 171,172 95,0 172,-77 172,-172z"/>
    <path id="154" class="fil86" d="M459 288c0,95 -76,171 -171,171 -94,0 -170,-76 -170,-171 0,-94 76,-170 170,-170 95,0 171,76 171,170zm2 0c0,-95 -77,-172 -173,-172 -95,0 -172,77 -172,172 0,96 77,173 172,173 96,0 173,-77 173,-173z"/>
    <path id="155" class="fil86" d="M461 288c0,96 -77,173 -173,173 -95,0 -172,-77 -172,-173 0,-95 77,-172 172,-172 96,0 173,77 173,172zm1 0c0,-95 -78,-173 -174,-173 -95,0 -173,78 -173,173 0,96 78,174 173,174 96,0 174,-78 174,-174z"/>
    <path id="156" class="fil87" d="M462 288c0,96 -78,174 -174,174 -95,0 -173,-78 -173,-174 0,-95 78,-173 173,-173 96,0 174,78 174,173zm1 0c0,-96 -78,-174 -175,-174 -96,0 -174,78 -174,174 0,97 78,175 174,175 97,0 175,-78 175,-175z"/>
    <path id="157" class="fil87" d="M463 288c0,97 -78,175 -175,175 -96,0 -174,-78 -174,-175 0,-96 78,-174 174,-174 97,0 175,78 175,174zm1 0c0,-97 -78,-175 -176,-175 -97,0 -175,78 -175,175 0,98 78,176 175,176 98,0 176,-78 176,-176z"/>
    <path id="158" class="fil88" d="M464 288c0,97 -79,176 -176,176 -96,0 -175,-79 -175,-176 0,-96 79,-175 175,-175 97,0 176,79 176,175zm2 0c0,-97 -80,-177 -178,-177 -97,0 -177,80 -177,177 0,98 80,178 177,178 98,0 178,-80 178,-178z"/>
    <path id="159" class="fil88" d="M465 288c0,98 -79,177 -177,177 -97,0 -176,-79 -176,-177 0,-97 79,-176 176,-176 98,0 177,79 177,176zm2 0c0,-98 -80,-178 -179,-178 -98,0 -178,80 -178,178 0,99 80,179 178,179 99,0 179,-80 179,-179z"/>
    <path id="160" class="fil89" d="M466 288c0,99 -79,178 -178,178 -98,0 -177,-79 -177,-178 0,-98 79,-177 177,-177 99,0 178,79 178,177zm2 0c0,-99 -81,-179 -180,-179 -99,0 -179,80 -179,179 0,99 80,180 179,180 99,0 180,-81 180,-180z"/>
    <path id="161" class="fil89" d="M467 288c0,99 -80,179 -179,179 -98,0 -178,-80 -178,-179 0,-98 80,-178 178,-178 99,0 179,80 179,178zm2 0c0,-99 -81,-180 -181,-180 -99,0 -180,81 -180,180 0,100 81,181 180,181 100,0 181,-81 181,-181z"/>
    <path id="162" class="fil90" d="M468 288c0,100 -80,180 -180,180 -99,0 -179,-80 -179,-180 0,-99 80,-179 179,-179 100,0 180,80 180,179zm2 0c0,-100 -81,-181 -182,-181 -100,0 -181,81 -181,181 0,101 81,182 181,182 101,0 182,-81 182,-182z"/>
    <path id="163" class="fil91" d="M469 288c0,100 -81,181 -181,181 -99,0 -180,-81 -180,-181 0,-99 81,-180 180,-180 100,0 181,81 181,180zm2 0c0,-100 -82,-182 -183,-182 -100,0 -182,82 -182,182 0,101 82,183 182,183 101,0 183,-82 183,-183z"/>
    <path id="164" class="fil91" d="M471 288c0,101 -82,183 -183,183 -100,0 -182,-82 -182,-183 0,-100 82,-182 182,-182 101,0 183,82 183,182zm1 0c0,-101 -82,-183 -184,-183 -101,0 -183,82 -183,183 0,102 82,184 183,184 102,0 184,-82 184,-184z"/>
    <path id="165" class="fil92" d="M472 288c0,102 -82,184 -184,184 -101,0 -183,-82 -183,-184 0,-101 82,-183 183,-183 102,0 184,82 184,183zm1 0c0,-102 -82,-184 -185,-184 -102,0 -184,82 -184,184 0,103 82,185 184,185 103,0 185,-82 185,-185z"/>
    <path id="166" class="fil92" d="M473 288c0,102 -83,185 -185,185 -101,0 -184,-83 -184,-185 0,-101 83,-184 184,-184 102,0 185,83 185,184zm1 0c0,-102 -83,-185 -186,-185 -102,0 -185,83 -185,185 0,103 83,186 185,186 103,0 186,-83 186,-186z"/>
    <path id="167" class="fil93" d="M474 288c0,103 -83,186 -186,186 -102,0 -185,-83 -185,-186 0,-102 83,-185 185,-185 103,0 186,83 186,185zm2 0c0,-103 -84,-187 -188,-187 -103,0 -187,84 -187,187 0,104 84,188 187,188 104,0 188,-84 188,-188z"/>
    <path id="168" class="fil93" d="M475 288c0,103 -84,187 -187,187 -103,0 -186,-84 -186,-187 0,-103 83,-186 186,-186 103,0 187,83 187,186zm2 0c0,-103 -85,-188 -189,-188 -103,0 -188,85 -188,188 0,104 85,189 188,189 104,0 189,-85 189,-189z"/>
    <path id="169" class="fil94" d="M476 288c0,104 -84,188 -188,188 -103,0 -187,-84 -187,-188 0,-103 84,-187 187,-187 104,0 188,84 188,187zm2 0c0,-104 -85,-189 -190,-189 -104,0 -189,85 -189,189 0,105 85,190 189,190 105,0 190,-85 190,-190z"/>
    <path id="170" class="fil94" d="M477 288c0,105 -84,189 -189,189 -104,0 -188,-84 -188,-189 0,-104 84,-188 188,-188 105,0 189,84 189,188zm2 0c0,-105 -85,-190 -191,-190 -105,0 -190,85 -190,190 0,106 85,191 190,191 106,0 191,-85 191,-191z"/>
    <path id="171" class="fil95" d="M478 288c0,105 -85,190 -190,190 -104,0 -189,-85 -189,-190 0,-104 85,-189 189,-189 105,0 190,85 190,189zm2 0c0,-105 -86,-191 -192,-191 -105,0 -191,86 -191,191 0,106 86,192 191,192 106,0 192,-86 192,-192z"/>
    <path id="172" class="fil96" d="M479 288c0,106 -85,191 -191,191 -105,0 -190,-85 -190,-191 0,-105 85,-190 190,-190 106,0 191,85 191,190zm2 0c0,-106 -86,-192 -193,-192 -106,0 -192,86 -192,192 0,107 86,193 192,193 107,0 193,-86 193,-193z"/>
    <path id="173" class="fil96" d="M481 288c0,107 -86,193 -193,193 -106,0 -192,-86 -192,-193 0,-106 86,-192 192,-192 107,0 193,86 193,192zm1 0c0,-106 -87,-193 -194,-193 -106,0 -193,87 -193,193 0,107 87,194 193,194 107,0 194,-87 194,-194z"/>
    <path id="174" class="fil97" d="M482 288c0,107 -87,194 -194,194 -106,0 -193,-87 -193,-194 0,-106 87,-193 193,-193 107,0 194,87 194,193zm1 0c0,-107 -87,-194 -195,-194 -107,0 -194,87 -194,194 0,108 87,195 194,195 108,0 195,-87 195,-195z"/>
    <path id="175" class="fil97" d="M483 288c0,108 -87,195 -195,195 -107,0 -194,-87 -194,-195 0,-107 87,-194 194,-194 108,0 195,87 195,194zm1 0c0,-108 -87,-195 -196,-195 -108,0 -195,87 -195,195 0,109 87,196 195,196 109,0 196,-87 196,-196z"/>
    <path id="176" class="fil98" d="M484 288c0,108 -88,196 -196,196 -107,0 -195,-88 -195,-196 0,-107 88,-195 195,-195 108,0 196,88 196,195zm2 0c0,-108 -89,-197 -198,-197 -108,0 -197,89 -197,197 0,109 89,198 197,198 109,0 198,-89 198,-198z"/>
    <path id="177" class="fil98" d="M485 288c0,109 -88,197 -197,197 -108,0 -196,-88 -196,-197 0,-108 88,-196 196,-196 109,0 197,88 197,196zm2 0c0,-109 -89,-198 -199,-198 -109,0 -198,89 -198,198 0,110 89,199 198,199 110,0 199,-89 199,-199z"/>
    <path id="178" class="fil99" d="M486 288c0,110 -88,198 -198,198 -109,0 -197,-88 -197,-198 0,-109 88,-197 197,-197 110,0 198,88 198,197zm2 0c0,-110 -89,-199 -200,-199 -110,0 -199,89 -199,199 0,111 89,200 199,200 111,0 200,-89 200,-200z"/>
    <path id="179" class="fil99" d="M487 288c0,110 -89,199 -199,199 -109,0 -198,-89 -198,-199 0,-109 89,-198 198,-198 110,0 199,89 199,198zm2 0c0,-110 -90,-200 -201,-200 -110,0 -200,90 -200,200 0,111 90,201 200,201 111,0 201,-90 201,-201z"/>
    <path id="180" class="fil100" d="M488 288c0,111 -89,200 -200,200 -110,0 -199,-89 -199,-200 0,-110 89,-199 199,-199 111,0 200,89 200,199zm2 0c0,-111 -90,-201 -202,-201 -111,0 -201,90 -201,201 0,112 90,202 201,202 112,0 202,-90 202,-202z"/>
    <path id="181" class="fil101" d="M489 288c0,111 -90,201 -201,201 -110,0 -200,-90 -200,-201 0,-110 90,-200 200,-200 111,0 201,90 201,200zm2 0c0,-111 -91,-202 -203,-202 -111,0 -202,91 -202,202 0,112 91,203 202,203 112,0 203,-91 203,-203z"/>
    <path id="182" class="fil101" d="M491 288c0,112 -91,203 -203,203 -111,0 -202,-91 -202,-203 0,-111 91,-202 202,-202 112,0 203,91 203,202zm1 0c0,-112 -91,-203 -204,-203 -112,0 -203,91 -203,203 0,113 91,204 203,204 113,0 204,-91 204,-204z"/>
    <path id="183" class="fil102" d="M492 288c0,113 -91,204 -204,204 -112,0 -203,-91 -203,-204 0,-112 91,-203 203,-203 113,0 204,91 204,203zm1 0c0,-113 -91,-204 -205,-204 -113,0 -204,91 -204,204 0,114 91,205 204,205 114,0 205,-91 205,-205z"/>
    <path id="184" class="fil102" d="M493 288c0,113 -92,205 -205,205 -112,0 -204,-92 -204,-205 0,-112 92,-204 204,-204 113,0 205,92 205,204zm1 0c0,-113 -92,-205 -206,-205 -113,0 -205,92 -205,205 0,114 92,206 205,206 114,0 206,-92 206,-206z"/>
    <path id="185" class="fil103" d="M494 288c0,114 -92,206 -206,206 -113,0 -205,-92 -205,-206 0,-113 92,-205 205,-205 114,0 206,92 206,205zm1 0c0,-114 -92,-207 -207,-207 -114,0 -207,93 -207,207 0,115 93,207 207,207 115,0 207,-92 207,-207z"/>
    <path id="186" class="fil103" d="M495 288c0,115 -92,207 -207,207 -114,0 -206,-92 -206,-207 0,-114 92,-206 206,-206 115,0 207,92 207,206zm2 0c0,-114 -94,-208 -209,-208 -114,0 -208,94 -208,208 0,115 94,209 208,209 115,0 209,-94 209,-209z"/>
    <path id="187" class="fil104" d="M496 288c0,115 -93,208 -208,208 -114,0 -207,-93 -207,-208 0,-114 93,-207 207,-207 115,0 208,93 208,207zm2 0c0,-115 -94,-209 -210,-209 -115,0 -209,94 -209,209 0,116 94,210 209,210 116,0 210,-94 210,-210z"/>
    <path id="188" class="fil104" d="M497 288c0,116 -93,209 -209,209 -115,0 -208,-93 -208,-209 0,-115 93,-208 208,-208 116,0 209,93 209,208zm2 0c0,-116 -94,-210 -211,-210 -116,0 -210,94 -210,210 0,117 94,211 210,211 117,0 211,-94 211,-211z"/>
    <path id="189" class="fil105" d="M498 288c0,116 -94,210 -210,210 -115,0 -209,-94 -209,-210 0,-115 94,-209 209,-209 116,0 210,94 210,209zm2 0c0,-116 -95,-211 -212,-211 -116,0 -211,95 -211,211 0,117 95,212 211,212 117,0 212,-95 212,-212z"/>
    <path id="190" class="fil106" d="M499 288c0,117 -94,211 -211,211 -116,0 -210,-94 -210,-211 0,-116 94,-210 210,-210 117,0 211,94 211,210zm2 0c0,-117 -95,-212 -213,-212 -117,0 -212,95 -212,212 0,118 95,213 212,213 118,0 213,-95 213,-213z"/>
    <path id="191" class="fil106" d="M500 288c0,118 -94,212 -212,212 -117,0 -212,-94 -212,-212 0,-117 95,-212 212,-212 118,0 212,95 212,212zm2 0c0,-118 -96,-213 -214,-213 -118,0 -213,95 -213,213 0,118 95,214 213,214 118,0 214,-96 214,-214z"/>
    <path id="192" class="fil107" d="M502 288c0,118 -96,214 -214,214 -117,0 -213,-96 -213,-214 0,-117 96,-213 213,-213 118,0 214,96 214,213zm1 0c0,-118 -96,-214 -215,-214 -118,0 -214,96 -214,214 0,119 96,215 214,215 119,0 215,-96 215,-215z"/>
    <path id="193" class="fil107" d="M503 288c0,119 -96,215 -215,215 -118,0 -214,-96 -214,-215 0,-118 96,-214 214,-214 119,0 215,96 215,214zm1 0c0,-119 -96,-215 -216,-215 -119,0 -215,96 -215,215 0,120 96,216 215,216 120,0 216,-96 216,-216z"/>
    <path id="194" class="fil108" d="M504 288c0,119 -97,216 -216,216 -118,0 -215,-97 -215,-216 0,-118 97,-215 215,-215 119,0 216,97 216,215zm1 0c0,-119 -97,-217 -217,-217 -119,0 -217,98 -217,217 0,120 98,217 217,217 120,0 217,-97 217,-217z"/>
    <path id="195" class="fil108" d="M505 288c0,120 -97,217 -217,217 -119,0 -216,-97 -216,-217 0,-119 97,-216 216,-216 120,0 217,97 217,216zm2 0c0,-120 -98,-218 -219,-218 -120,0 -218,98 -218,218 0,121 98,219 218,219 121,0 219,-98 219,-219z"/>
    <path id="196" class="fil109" d="M506 288c0,121 -97,218 -218,218 -120,0 -217,-97 -217,-218 0,-120 97,-217 217,-217 121,0 218,97 218,217zm2 0c0,-121 -98,-219 -220,-219 -121,0 -219,98 -219,219 0,122 98,220 219,220 122,0 220,-98 220,-220z"/>
    <path id="197" class="fil109" d="M507 288c0,121 -98,219 -219,219 -120,0 -218,-98 -218,-219 0,-120 98,-218 218,-218 121,0 219,98 219,218zm2 0c0,-121 -99,-220 -221,-220 -121,0 -220,99 -220,220 0,122 99,221 220,221 122,0 221,-99 221,-221z"/>
    <path id="198" class="fil110" d="M508 288c0,122 -98,220 -220,220 -121,0 -219,-98 -219,-220 0,-121 98,-219 219,-219 122,0 220,98 220,219zm2 0c0,-122 -99,-221 -222,-221 -122,0 -221,99 -221,221 0,123 99,222 221,222 123,0 222,-99 222,-222z"/>
    <path id="199" class="fil111" d="M509 288c0,122 -99,221 -221,221 -122,0 -220,-99 -220,-221 0,-122 98,-220 220,-220 122,0 221,98 221,220zm2 0c0,-122 -100,-222 -223,-222 -122,0 -222,100 -222,222 0,123 100,223 222,223 123,0 223,-100 223,-223z"/>
    <path id="200" class="fil111" d="M510 288c0,123 -99,222 -222,222 -122,0 -222,-99 -222,-222 0,-122 100,-222 222,-222 123,0 222,100 222,222zm2 0c0,-123 -100,-223 -224,-223 -123,0 -223,100 -223,223 0,124 100,224 223,224 124,0 224,-100 224,-224z"/>
    <path id="201" class="fil112" d="M512 288c0,124 -100,224 -224,224 -123,0 -223,-100 -223,-224 0,-123 100,-223 223,-223 124,0 224,100 224,223zm1 0c0,-124 -100,-224 -225,-224 -124,0 -224,100 -224,224 0,125 100,225 224,225 125,0 225,-100 225,-225z"/>
    <path id="202" class="fil112" d="M513 288c0,124 -101,225 -225,225 -123,0 -224,-101 -224,-225 0,-123 101,-224 224,-224 124,0 225,101 225,224zm1 0c0,-124 -101,-225 -226,-225 -124,0 -225,101 -225,225 0,125 101,226 225,226 125,0 226,-101 226,-226z"/>
    <path id="203" class="fil113" d="M514 288c0,125 -101,226 -226,226 -124,0 -225,-101 -225,-226 0,-124 101,-225 225,-225 125,0 226,101 226,225zm1 0c0,-125 -101,-227 -227,-227 -125,0 -227,102 -227,227 0,126 102,227 227,227 126,0 227,-101 227,-227z"/>
    <path id="204" class="fil113" d="M515 288c0,126 -101,227 -227,227 -125,0 -226,-101 -226,-227 0,-125 101,-226 226,-226 126,0 227,101 227,226zm2 0c0,-125 -103,-228 -229,-228 -125,0 -228,103 -228,228 0,126 103,229 228,229 126,0 229,-103 229,-229z"/>
    <path id="205" class="fil114" d="M516 288c0,126 -102,228 -228,228 -125,0 -227,-102 -227,-228 0,-125 102,-227 227,-227 126,0 228,102 228,227zm2 0c0,-126 -103,-229 -230,-229 -126,0 -229,103 -229,229 0,127 103,230 229,230 127,0 230,-103 230,-230z"/>
    <path id="206" class="fil114" d="M517 288c0,127 -102,229 -229,229 -126,0 -228,-102 -228,-229 0,-126 102,-228 228,-228 127,0 229,102 229,228zm2 0c0,-127 -103,-230 -231,-230 -127,0 -230,103 -230,230 0,128 103,231 230,231 128,0 231,-103 231,-231z"/>
    <path id="207" class="fil115" d="M518 288c0,127 -103,230 -230,230 -126,0 -229,-103 -229,-230 0,-126 103,-229 229,-229 127,0 230,103 230,229zm2 0c0,-127 -104,-231 -232,-231 -127,0 -231,104 -231,231 0,128 104,232 231,232 128,0 232,-104 232,-232z"/>
    <path id="208" class="fil116" d="M519 288c0,128 -103,231 -231,231 -127,0 -230,-103 -230,-231 0,-127 103,-230 230,-230 128,0 231,103 231,230zm2 0c0,-128 -104,-232 -233,-232 -128,0 -232,104 -232,232 0,129 104,233 232,233 129,0 233,-104 233,-233z"/>
    <path id="209" class="fil116" d="M520 288c0,129 -103,232 -232,232 -128,0 -232,-103 -232,-232 0,-128 104,-232 232,-232 129,0 232,104 232,232zm2 0c0,-129 -104,-233 -234,-233 -129,0 -233,104 -233,233 0,130 104,234 233,234 130,0 234,-104 234,-234z"/>
    <path id="210" class="fil117" d="M522 288c0,129 -105,234 -234,234 -128,0 -233,-105 -233,-234 0,-128 105,-233 233,-233 129,0 234,105 234,233zm1 0c0,-129 -105,-234 -235,-234 -129,0 -234,105 -234,234 0,130 105,235 234,235 130,0 235,-105 235,-235z"/>
    <path id="211" class="fil117" d="M523 288c0,130 -105,235 -235,235 -129,0 -234,-105 -234,-235 0,-129 105,-234 234,-234 130,0 235,105 235,234zm1 0c0,-130 -105,-235 -236,-235 -130,0 -235,105 -235,235 0,131 105,236 235,236 131,0 236,-105 236,-236z"/>
    <path id="212" class="fil118" d="M524 288c0,130 -106,236 -236,236 -129,0 -235,-106 -235,-236 0,-129 106,-235 235,-235 130,0 236,106 236,235zm1 0c0,-130 -106,-237 -237,-237 -130,0 -237,107 -237,237 0,131 107,237 237,237 131,0 237,-106 237,-237z"/>
    <path id="213" class="fil118" d="M525 288c0,131 -106,237 -237,237 -130,0 -236,-106 -236,-237 0,-130 106,-236 236,-236 131,0 237,106 237,236zm2 0c0,-131 -107,-238 -239,-238 -131,0 -238,107 -238,238 0,132 107,239 238,239 132,0 239,-107 239,-239z"/>
    <path id="214" class="fil119" d="M526 288c0,132 -106,238 -238,238 -131,0 -237,-106 -237,-238 0,-131 106,-237 237,-237 132,0 238,106 238,237zm2 0c0,-132 -107,-239 -240,-239 -132,0 -239,107 -239,239 0,133 107,240 239,240 133,0 240,-107 240,-240z"/>
    <path id="215" class="fil119" d="M527 288c0,132 -107,239 -239,239 -131,0 -238,-107 -238,-239 0,-131 107,-238 238,-238 132,0 239,107 239,238zm2 0c0,-132 -108,-240 -241,-240 -132,0 -240,108 -240,240 0,133 108,241 240,241 133,0 241,-108 241,-241z"/>
    <path id="216" class="fil120" d="M528 288c0,133 -107,240 -240,240 -132,0 -239,-107 -239,-240 0,-132 107,-239 239,-239 133,0 240,107 240,239zm2 0c0,-133 -108,-241 -242,-241 -133,0 -241,108 -241,241 0,134 108,242 241,242 134,0 242,-108 242,-242z"/>
    <path id="217" class="fil121" d="M529 288c0,134 -107,241 -241,241 -133,0 -240,-107 -240,-241 0,-133 107,-240 240,-240 134,0 241,107 241,240zm2 0c0,-133 -109,-242 -243,-242 -133,0 -242,109 -242,242 0,134 109,243 242,243 134,0 243,-109 243,-243z"/>
    <path id="218" class="fil121" d="M530 288c0,134 -108,242 -242,242 -133,0 -242,-108 -242,-242 0,-133 109,-242 242,-242 134,0 242,109 242,242zm2 0c0,-134 -109,-243 -244,-243 -134,0 -243,109 -243,243 0,135 109,244 243,244 135,0 244,-109 244,-244z"/>
    <path id="219" class="fil122" d="M532 288c0,135 -109,244 -244,244 -134,0 -243,-109 -243,-244 0,-134 109,-243 243,-243 135,0 244,109 244,243zm1 0c0,-135 -109,-244 -245,-244 -135,0 -244,109 -244,244 0,136 109,245 244,245 136,0 245,-109 245,-245z"/>
    <path id="220" class="fil122" d="M533 288c0,135 -110,245 -245,245 -134,0 -244,-110 -244,-245 0,-134 110,-244 244,-244 135,0 245,110 245,244zm1 0c0,-135 -110,-245 -246,-245 -135,0 -245,110 -245,245 0,136 110,246 245,246 136,0 246,-110 246,-246z"/>
    <path id="221" class="fil123" d="M534 288c0,136 -110,246 -246,246 -135,0 -245,-110 -245,-246 0,-135 110,-245 245,-245 136,0 246,110 246,245zm1 0c0,-136 -110,-246 -247,-246 -136,0 -246,110 -246,246 0,137 110,247 246,247 137,0 247,-110 247,-247z"/>
    <path id="222" class="fil123" d="M535 288c0,137 -110,247 -247,247 -136,0 -246,-110 -246,-247 0,-136 110,-246 246,-246 137,0 247,110 247,246zm2 0c0,-137 -112,-248 -249,-248 -137,0 -248,111 -248,248 0,137 111,249 248,249 137,0 249,-112 249,-249z"/>
    <path id="223" class="fil124" d="M536 288c0,137 -111,248 -248,248 -136,0 -247,-111 -247,-248 0,-136 111,-247 247,-247 137,0 248,111 248,247zm2 0c0,-137 -112,-249 -250,-249 -137,0 -249,112 -249,249 0,138 112,250 249,250 138,0 250,-112 250,-250z"/>
    <path id="224" class="fil124" d="M537 288c0,138 -111,249 -249,249 -137,0 -248,-111 -248,-249 0,-137 111,-248 248,-248 138,0 249,111 249,248zm2 0c0,-138 -112,-250 -251,-250 -138,0 -250,112 -250,250 0,139 112,251 250,251 139,0 251,-112 251,-251z"/>
    <path id="225" class="fil125" d="M538 288c0,138 -112,250 -250,250 -137,0 -249,-112 -249,-250 0,-137 112,-249 249,-249 138,0 250,112 250,249zm2 0c0,-138 -113,-251 -252,-251 -138,0 -251,113 -251,251 0,139 113,252 251,252 139,0 252,-113 252,-252z"/>
    <path id="226" class="fil126" d="M539 288c0,139 -112,251 -251,251 -138,0 -250,-112 -250,-251 0,-138 112,-250 250,-250 139,0 251,112 251,250zm2 0c0,-139 -113,-252 -253,-252 -139,0 -252,113 -252,252 0,140 113,253 252,253 140,0 253,-113 253,-253z"/>
    <path id="227" class="fil126" d="M540 288c0,140 -112,252 -252,252 -139,0 -251,-112 -251,-252 0,-139 112,-251 251,-251 140,0 252,112 252,251zm2 0c0,-140 -113,-253 -254,-253 -140,0 -253,113 -253,253 0,141 113,254 253,254 141,0 254,-113 254,-254z"/>
    <path id="228" class="fil127" d="M542 288c0,140 -114,254 -254,254 -139,0 -253,-114 -253,-254 0,-139 114,-253 253,-253 140,0 254,114 254,253zm1 0c0,-140 -114,-254 -255,-254 -140,0 -254,114 -254,254 0,141 114,255 254,255 141,0 255,-114 255,-255z"/>
    <path id="229" class="fil127" d="M543 288c0,141 -114,255 -255,255 -140,0 -254,-114 -254,-255 0,-140 114,-254 254,-254 141,0 255,114 255,254zm1 0c0,-141 -114,-255 -256,-255 -141,0 -255,114 -255,255 0,142 114,256 255,256 142,0 256,-114 256,-256z"/>
    <path id="230" class="fil128" d="M544 288c0,141 -115,256 -256,256 -141,0 -255,-115 -255,-256 0,-141 114,-255 255,-255 141,0 256,114 256,255zm1 0c0,-141 -115,-256 -257,-256 -141,0 -256,115 -256,256 0,142 115,257 256,257 142,0 257,-115 257,-257z"/>
    <path id="231" class="fil129" d="M545 288c0,142 -115,257 -257,257 -141,0 -256,-115 -256,-257 0,-141 115,-256 256,-256 142,0 257,115 257,256zm2 0c0,-142 -116,-258 -259,-258 -142,0 -258,116 -258,258 0,143 116,259 258,259 143,0 259,-116 259,-259z"/>
    <path id="232" class="fil130" d="M546 288c0,143 -115,258 -258,258 -142,0 -257,-115 -257,-258 0,-142 115,-257 257,-257 143,0 258,115 258,257zm2 0c0,-143 -116,-259 -260,-259 -143,0 -259,116 -259,259 0,144 116,260 259,260 144,0 260,-116 260,-260z"/>
    <path id="233" class="fil131" d="M547 288c0,143 -116,259 -259,259 -142,0 -258,-116 -258,-259 0,-142 116,-258 258,-258 143,0 259,116 259,258zm2 0c0,-143 -117,-260 -261,-260 -143,0 -260,117 -260,260 0,144 117,261 260,261 144,0 261,-117 261,-261z"/>
    <path id="234" class="fil132" d="M548 288c0,144 -116,260 -260,260 -143,0 -259,-116 -259,-260 0,-143 116,-259 259,-259 144,0 260,116 260,259zm2 0c0,-144 -117,-261 -262,-261 -144,0 -261,117 -261,261 0,145 117,262 261,262 145,0 262,-117 262,-262z"/>
    <path id="235" class="fil133" d="M549 288c0,145 -116,261 -261,261 -144,0 -260,-116 -260,-261 0,-144 116,-260 260,-260 145,0 261,116 261,260zm2 0c0,-145 -118,-262 -263,-262 -145,0 -262,117 -262,262 0,145 117,263 262,263 145,0 263,-118 263,-263z"/>
    <path id="236" class="fil134" d="M550 288c0,145 -117,262 -262,262 -144,0 -261,-117 -261,-262 0,-144 117,-261 261,-261 145,0 262,117 262,261zm2 0c0,-145 -118,-263 -264,-263 -145,0 -263,118 -263,263 0,146 118,264 263,264 146,0 264,-118 264,-264z"/>
    <path id="237" class="fil135" d="M552 288c0,146 -118,264 -264,264 -145,0 -263,-118 -263,-264 0,-145 118,-263 263,-263 146,0 264,118 264,263zm1 0c0,-146 -118,-264 -265,-264 -146,0 -264,118 -264,264 0,147 118,265 264,265 147,0 265,-118 265,-265z"/>
    <path id="238" class="fil136" d="M553 288c0,146 -119,265 -265,265 -145,0 -264,-119 -264,-265 0,-145 119,-264 264,-264 146,0 265,119 265,264zm1 0c0,-146 -119,-265 -266,-265 -146,0 -265,119 -265,265 0,147 119,266 265,266 147,0 266,-119 266,-266z"/>
    <path id="239" class="fil137" d="M554 288c0,147 -119,266 -266,266 -146,0 -265,-119 -265,-266 0,-146 119,-265 265,-265 147,0 266,119 266,265zm1 0c0,-147 -119,-266 -267,-266 -147,0 -266,119 -266,266 0,148 119,267 266,267 148,0 267,-119 267,-267z"/>
    <path id="240" class="fil138" d="M555 288c0,148 -119,267 -267,267 -147,0 -266,-119 -266,-267 0,-147 119,-266 266,-266 148,0 267,119 267,266zm2 0c0,-148 -120,-268 -269,-268 -148,0 -268,120 -268,268 0,149 120,269 268,269 149,0 269,-120 269,-269z"/>
    <path id="241" class="fil139" d="M556 288c0,148 -120,268 -268,268 -147,0 -267,-120 -267,-268 0,-147 120,-267 267,-267 148,0 268,120 268,267zm2 0c0,-148 -121,-269 -270,-269 -148,0 -269,121 -269,269 0,149 121,270 269,270 149,0 270,-121 270,-270z"/>
    <path id="242" class="fil140" d="M557 288c0,149 -120,269 -269,269 -148,0 -268,-120 -268,-269 0,-148 120,-268 268,-268 149,0 269,120 269,268zm2 0c0,-149 -121,-270 -271,-270 -149,0 -270,121 -270,270 0,150 121,271 270,271 150,0 271,-121 271,-271z"/>
    <path id="243" class="fil141" d="M558 288c0,149 -121,270 -270,270 -148,0 -269,-121 -269,-270 0,-148 121,-269 269,-269 149,0 270,121 270,269zm2 0c0,-149 -122,-271 -272,-271 -149,0 -271,122 -271,271 0,150 122,272 271,272 150,0 272,-122 272,-272z"/>
    <path id="244" class="fil142" d="M559 288c0,150 -121,271 -271,271 -149,0 -270,-121 -270,-271 0,-149 121,-270 270,-270 150,0 271,121 271,270zm2 0c0,-150 -122,-272 -273,-272 -150,0 -272,122 -272,272 0,151 122,273 272,273 151,0 273,-122 273,-273z"/>
    <path id="245" class="fil143" d="M560 288c0,151 -121,272 -272,272 -150,0 -271,-121 -271,-272 0,-150 121,-271 271,-271 151,0 272,121 272,271zm2 0c0,-151 -122,-273 -274,-273 -151,0 -273,122 -273,273 0,152 122,274 273,274 152,0 274,-122 274,-274z"/>
    <path id="246" class="fil144" d="M562 288c0,151 -123,274 -274,274 -150,0 -273,-123 -273,-274 0,-150 123,-273 273,-273 151,0 274,123 274,273zm1 0c0,-151 -123,-274 -275,-274 -151,0 -274,123 -274,274 0,152 123,275 274,275 152,0 275,-123 275,-275z"/>
    <path id="247" class="fil145" d="M563 288c0,152 -123,275 -275,275 -151,0 -274,-123 -274,-275 0,-151 123,-274 274,-274 152,0 275,123 275,274zm1 0c0,-152 -123,-275 -276,-275 -152,0 -275,123 -275,275 0,153 123,276 275,276 153,0 276,-123 276,-276z"/>
    <path id="248" class="fil146" d="M564 288c0,153 -123,276 -276,276 -152,0 -275,-123 -275,-276 0,-152 123,-275 275,-275 153,0 276,123 276,275zm1 0c0,-152 -124,-276 -277,-276 -152,0 -276,124 -276,276 0,153 124,277 276,277 153,0 277,-124 277,-277z"/>
    <path id="249" class="fil147" d="M565 288c0,153 -124,277 -277,277 -152,0 -276,-124 -276,-277 0,-152 124,-276 276,-276 153,0 277,124 277,276zm2 0c0,-153 -125,-278 -279,-278 -153,0 -278,125 -278,278 0,154 125,279 278,279 154,0 279,-125 279,-279z"/>
    <path id="250" class="fil148" d="M566 288c0,154 -124,278 -278,278 -153,0 -277,-124 -277,-278 0,-153 124,-277 277,-277 154,0 278,124 278,277zm2 0c0,-154 -125,-279 -280,-279 -154,0 -279,125 -279,279 0,155 125,280 279,280 155,0 280,-125 280,-280z"/>
    <path id="251" class="fil149" d="M567 288c0,154 -125,279 -279,279 -153,0 -278,-125 -278,-279 0,-153 125,-278 278,-278 154,0 279,125 279,278zm2 0c0,-154 -126,-280 -281,-280 -154,0 -280,126 -280,280 0,155 126,281 280,281 155,0 281,-126 281,-281z"/>
    <path id="252" class="fil150" d="M568 288c0,155 -125,280 -280,280 -154,0 -279,-125 -279,-280 0,-154 125,-279 279,-279 155,0 280,125 280,279zm2 0c0,-155 -126,-281 -282,-281 -155,0 -281,126 -281,281 0,156 126,282 281,282 156,0 282,-126 282,-282z"/>
    <path id="253" class="fil151" d="M569 288c0,156 -125,281 -281,281 -155,0 -280,-125 -280,-281 0,-155 125,-280 280,-280 156,0 281,125 281,280zm2 0c0,-156 -126,-282 -283,-282 -156,0 -282,126 -282,282 0,157 126,283 282,283 157,0 283,-126 283,-283z"/>
    <path id="254" class="fil152" d="M570 288c0,156 -126,282 -282,282 -155,0 -281,-126 -281,-282 0,-155 126,-281 281,-281 156,0 282,126 282,281zm2 0c0,-156 -127,-283 -284,-283 -156,0 -283,127 -283,283 0,157 127,284 283,284 157,0 284,-127 284,-284z"/>
    <path id="255" class="fil153" d="M572 288c0,157 -127,284 -284,284 -156,0 -283,-127 -283,-284 0,-156 127,-283 283,-283 157,0 284,127 284,283zm1 0c0,-157 -127,-284 -285,-284 -157,0 -284,127 -284,284 0,158 127,285 284,285 158,0 285,-127 285,-285z"/>
    <path id="256" class="fil0" d="M573 288c0,157 -128,285 -285,285 -156,0 -284,-128 -284,-285 0,-156 128,-284 284,-284 157,0 285,128 285,284zm1 0c0,-157 -128,-285 -286,-285 -157,0 -285,128 -285,285 0,158 128,286 285,286 158,0 286,-128 286,-286z"/>
    <path id="257" class="fil1" d="M574 288c0,158 -128,286 -286,286 -157,0 -285,-128 -285,-286 0,-157 128,-285 285,-285 158,0 286,128 286,285zm1 0c0,-158 -128,-286 -287,-286 -158,0 -286,128 -286,286 0,159 128,287 286,287 159,0 287,-128 287,-287z"/>
    <path id="258" class="fil1" d="M575 288c0,159 -128,287 -287,287 -158,0 -286,-128 -286,-287 0,-158 128,-286 286,-286 159,0 287,128 287,286zm2 0c0,-159 -129,-288 -289,-288 -159,0 -288,129 -288,288 0,160 129,289 288,289 160,0 289,-129 289,-289z"/>
    <path id="259" class="fil2" d="M576 288c0,159 -129,288 -288,288 -158,0 -287,-129 -287,-288 0,-158 129,-287 287,-287 159,0 288,129 288,287zm2 0c0,-159 -130,-289 -290,-289 -159,0 -289,130 -289,289 0,160 130,290 289,290 160,0 290,-130 290,-290z"/>
    <path id="260" class="fil2" d="M577 288c0,160 -129,289 -289,289 -159,0 -288,-129 -288,-289 0,-159 129,-288 288,-288 160,0 289,129 289,288zm2 0c0,-160 -130,-290 -291,-290 -160,0 -290,130 -290,290 0,161 130,291 290,291 161,0 291,-130 291,-291z"/>
    <path id="261" class="fil3" d="M578 288c0,160 -130,290 -290,290 -160,0 -289,-130 -289,-290 0,-160 129,-289 289,-289 160,0 290,129 290,289zm2 0c0,-160 -131,-291 -292,-291 -160,0 -291,131 -291,291 0,161 131,292 291,292 161,0 292,-131 292,-292z"/>
    <path id="262" class="fil3" d="M579 288c0,161 -130,291 -291,291 -160,0 -290,-130 -290,-291 0,-160 130,-290 290,-290 161,0 291,130 291,290zm2 0c0,-161 -131,-292 -293,-292 -161,0 -292,131 -292,292 0,162 131,293 292,293 162,0 293,-131 293,-293z"/>
    <path id="263" class="fil4" d="M580 288c0,162 -130,292 -292,292 -161,0 -291,-130 -291,-292 0,-161 130,-291 291,-291 162,0 292,130 292,291zm2 0c0,-162 -131,-293 -294,-293 -162,0 -293,131 -293,293 0,163 131,294 293,294 163,0 294,-131 294,-294z"/>
    <path id="264" class="fil4" d="M582 288c0,162 -132,294 -294,294 -161,0 -293,-132 -293,-294 0,-161 132,-293 293,-293 162,0 294,132 294,293zm1 0c0,-162 -132,-294 -295,-294 -162,0 -294,132 -294,294 0,163 132,295 294,295 163,0 295,-132 295,-295z"/>
    <path id="265" class="fil5" d="M583 288c0,163 -132,295 -295,295 -162,0 -294,-132 -294,-295 0,-162 132,-294 294,-294 163,0 295,132 295,294zm1 0c0,-163 -132,-295 -296,-295 -163,0 -295,132 -295,295 0,164 132,296 295,296 164,0 296,-132 296,-296z"/>
    <path id="266" class="fil6" d="M584 288c0,164 -132,296 -296,296 -163,0 -295,-132 -295,-296 0,-163 132,-295 295,-295 164,0 296,132 296,295zm1 0c0,-164 -133,-296 -297,-296 -164,0 -296,132 -296,296 0,164 132,297 296,297 164,0 297,-133 297,-297z"/>
    <path id="267" class="fil6" d="M585 288c0,164 -133,297 -297,297 -163,0 -296,-133 -296,-297 0,-163 133,-296 296,-296 164,0 297,133 297,296zm2 0c0,-164 -134,-298 -299,-298 -164,0 -298,134 -298,298 0,165 134,299 298,299 165,0 299,-134 299,-299z"/>
    <path id="268" class="fil7" d="M586 288c0,165 -133,298 -298,298 -164,0 -297,-133 -297,-298 0,-164 133,-297 297,-297 165,0 298,133 298,297zm2 0c0,-165 -134,-299 -300,-299 -165,0 -299,134 -299,299 0,166 134,300 299,300 166,0 300,-134 300,-300z"/>
    <path id="269" class="fil7" d="M587 288c0,165 -134,299 -299,299 -164,0 -298,-134 -298,-299 0,-164 134,-298 298,-298 165,0 299,134 299,298zm2 0c0,-165 -135,-300 -301,-300 -165,0 -300,135 -300,300 0,166 135,301 300,301 166,0 301,-135 301,-301z"/>
    <path id="270" class="fil8" d="M588 288c0,166 -134,300 -300,300 -165,0 -299,-134 -299,-300 0,-165 134,-299 299,-299 166,0 300,134 300,299zm2 0c0,-166 -135,-301 -302,-301 -166,0 -301,135 -301,301 0,167 135,302 301,302 167,0 302,-135 302,-302z"/>
    <path id="271" class="fil8" d="M589 288c0,167 -134,301 -301,301 -166,0 -300,-134 -300,-301 0,-166 134,-300 300,-300 167,0 301,134 301,300zm2 0c0,-167 -135,-302 -303,-302 -167,0 -302,135 -302,302 0,168 135,303 302,303 168,0 303,-135 303,-303z"/>
    <path id="272" class="fil9" d="M590 288c0,167 -135,302 -302,302 -166,0 -301,-135 -301,-302 0,-166 135,-301 301,-301 167,0 302,135 302,301zm2 0c0,-167 -136,-303 -304,-303 -167,0 -303,136 -303,303 0,168 136,304 303,304 168,0 304,-136 304,-304z"/>
    <path id="273" class="fil9" d="M592 288c0,168 -136,304 -304,304 -167,0 -303,-136 -303,-304 0,-167 136,-303 303,-303 168,0 304,136 304,303zm1 0c0,-168 -136,-304 -305,-304 -168,0 -304,136 -304,304 0,169 136,305 304,305 169,0 305,-136 305,-305z"/>
    <path id="274" class="fil10" d="M593 288c0,168 -137,305 -305,305 -167,0 -304,-137 -304,-305 0,-167 137,-304 304,-304 168,0 305,137 305,304zm1 0c0,-168 -137,-305 -306,-305 -168,0 -305,137 -305,305 0,169 137,306 305,306 169,0 306,-137 306,-306z"/>
    <path id="275" class="fil11" d="M594 288c0,169 -137,306 -306,306 -168,0 -305,-137 -305,-306 0,-168 137,-305 305,-305 169,0 306,137 306,305zm1 0c0,-169 -137,-306 -307,-306 -169,0 -306,137 -306,306 0,170 137,307 306,307 170,0 307,-137 307,-307z"/>
    <path id="276" class="fil11" d="M595 288c0,170 -137,307 -307,307 -169,0 -306,-137 -306,-307 0,-169 137,-306 306,-306 170,0 307,137 307,306zm2 0c0,-170 -138,-308 -309,-308 -170,0 -308,138 -308,308 0,171 138,309 308,309 171,0 309,-138 309,-309z"/>
    <path id="277" class="fil12" d="M596 288c0,170 -138,308 -308,308 -169,0 -307,-138 -307,-308 0,-169 138,-307 307,-307 170,0 308,138 308,307zm2 0c0,-170 -139,-309 -310,-309 -170,0 -309,139 -309,309 0,171 139,310 309,310 171,0 310,-139 310,-310z"/>
    <path id="278" class="fil12" d="M597 288c0,171 -138,309 -309,309 -170,0 -308,-138 -308,-309 0,-170 138,-308 308,-308 171,0 309,138 309,308zm2 0c0,-171 -139,-310 -311,-310 -171,0 -310,139 -310,310 0,172 139,311 310,311 172,0 311,-139 311,-311z"/>
    <path id="279" class="fil13" d="M598 288c0,172 -138,310 -310,310 -171,0 -309,-138 -309,-310 0,-171 138,-309 309,-309 172,0 310,138 310,309zm2 0c0,-171 -140,-311 -312,-311 -171,0 -311,140 -311,311 0,172 140,312 311,312 172,0 312,-140 312,-312z"/>
    <path id="280" class="fil13" d="M599 288c0,172 -139,311 -311,311 -171,0 -310,-139 -310,-311 0,-171 139,-310 310,-310 172,0 311,139 311,310zm2 0c0,-172 -140,-312 -313,-312 -172,0 -312,140 -312,312 0,173 140,313 312,313 173,0 313,-140 313,-313z"/>
    <path id="281" class="fil14" d="M600 288c0,173 -139,312 -312,312 -172,0 -311,-139 -311,-312 0,-172 139,-311 311,-311 173,0 312,139 312,311zm2 0c0,-173 -140,-313 -314,-313 -173,0 -313,140 -313,313 0,174 140,314 313,314 174,0 314,-140 314,-314z"/>
    <path id="282" class="fil14" d="M602 288c0,173 -141,314 -314,314 -172,0 -313,-141 -313,-314 0,-172 141,-313 313,-313 173,0 314,141 314,313zm1 0c0,-173 -141,-314 -315,-314 -173,0 -314,141 -314,314 0,174 141,315 314,315 174,0 315,-141 315,-315z"/>
    <path id="283" class="fil15" d="M603 288c0,174 -141,315 -315,315 -173,0 -314,-141 -314,-315 0,-173 141,-314 314,-314 174,0 315,141 315,314zm1 0c0,-174 -141,-315 -316,-315 -174,0 -315,141 -315,315 0,175 141,316 315,316 175,0 316,-141 316,-316z"/>
    <path id="284" class="fil16" d="M604 288c0,175 -141,316 -316,316 -174,0 -315,-141 -315,-316 0,-174 141,-315 315,-315 175,0 316,141 316,315zm1 0c0,-175 -141,-316 -317,-316 -175,0 -316,141 -316,316 0,176 141,317 316,317 176,0 317,-141 317,-317z"/>
    <path id="285" class="fil16" d="M605 288c0,175 -142,317 -317,317 -174,0 -316,-142 -316,-317 0,-174 142,-316 316,-316 175,0 317,142 317,316zm2 0c0,-175 -143,-318 -319,-318 -175,0 -318,143 -318,318 0,176 143,319 318,319 176,0 319,-143 319,-319z"/>
    <path id="286" class="fil17" d="M606 288c0,176 -142,318 -318,318 -175,0 -317,-142 -317,-318 0,-175 142,-317 317,-317 176,0 318,142 318,317zm2 0c0,-176 -143,-319 -320,-319 -176,0 -319,143 -319,319 0,177 143,320 319,320 177,0 320,-143 320,-320z"/>
    <path id="287" class="fil17" d="M607 288c0,176 -143,319 -319,319 -175,0 -318,-143 -318,-319 0,-175 143,-318 318,-318 176,0 319,143 319,318zm2 0c0,-176 -144,-320 -321,-320 -176,0 -320,144 -320,320 0,177 144,321 320,321 177,0 321,-144 321,-321z"/>
    <path id="288" class="fil18" d="M608 288c0,177 -143,320 -320,320 -176,0 -319,-143 -319,-320 0,-176 143,-319 319,-319 177,0 320,143 320,319zm2 0c0,-177 -144,-321 -322,-321 -177,0 -321,144 -321,321 0,178 144,322 321,322 178,0 322,-144 322,-322z"/>
    <path id="289" class="fil18" d="M609 288c0,178 -143,321 -321,321 -177,0 -320,-143 -320,-321 0,-177 143,-320 320,-320 178,0 321,143 321,320zm2 0c0,-178 -144,-322 -323,-322 -178,0 -322,144 -322,322 0,179 144,323 322,323 179,0 323,-144 323,-323z"/>
    <path id="290" class="fil19" d="M610 288c0,178 -144,322 -322,322 -177,0 -321,-144 -321,-322 0,-177 144,-321 321,-321 178,0 322,144 322,321zm2 0c0,-178 -145,-323 -324,-323 -178,0 -323,145 -323,323 0,179 145,324 323,324 179,0 324,-145 324,-324z"/>
    <path id="291" class="fil19" d="M611 288c0,179 -144,323 -323,323 -178,0 -323,-144 -323,-323 0,-178 145,-323 323,-323 179,0 323,145 323,323zm2 0c0,-179 -145,-324 -325,-324 -179,0 -324,145 -324,324 0,180 145,325 324,325 180,0 325,-145 325,-325z"/>
    <path id="292" class="fil20" d="M613 288c0,179 -146,325 -325,325 -179,0 -324,-146 -324,-325 0,-179 145,-324 324,-324 179,0 325,145 325,324zm1 0c0,-179 -146,-325 -326,-325 -179,0 -325,146 -325,325 0,180 146,326 325,326 180,0 326,-146 326,-326z"/>
    <path id="293" class="fil21" d="M614 288c0,180 -146,326 -326,326 -179,0 -325,-146 -325,-326 0,-179 146,-325 325,-325 180,0 326,146 326,325zm1 0c0,-180 -146,-326 -327,-326 -180,0 -326,146 -326,326 0,181 146,327 326,327 181,0 327,-146 327,-327z"/>
    <path id="294" class="fil21" d="M615 288c0,181 -146,327 -327,327 -180,0 -326,-146 -326,-327 0,-180 146,-326 326,-326 181,0 327,146 327,326zm1 0c0,-181 -146,-328 -328,-328 -181,0 -328,147 -328,328 0,182 147,328 328,328 182,0 328,-146 328,-328z"/>
    <path id="295" class="fil22" d="M616 288c0,181 -147,328 -328,328 -180,0 -327,-147 -327,-328 0,-180 147,-327 327,-327 181,0 328,147 328,327zm2 0c0,-181 -148,-329 -330,-329 -181,0 -329,148 -329,329 0,182 148,330 329,330 182,0 330,-148 330,-330z"/>
    <path id="296" class="fil22" d="M617 288c0,182 -147,329 -329,329 -181,0 -328,-147 -328,-329 0,-181 147,-328 328,-328 182,0 329,147 329,328zm2 0c0,-182 -148,-330 -331,-330 -182,0 -330,148 -330,330 0,183 148,331 330,331 183,0 331,-148 331,-331z"/>
    <path id="297" class="fil23" d="M618 288c0,183 -147,330 -330,330 -182,0 -329,-147 -329,-330 0,-182 147,-329 329,-329 183,0 330,147 330,329zm2 0c0,-183 -149,-331 -332,-331 -183,0 -331,148 -331,331 0,183 148,332 331,332 183,0 332,-149 332,-332z"/>
    <path id="298" class="fil23" d="M619 288c0,183 -148,331 -331,331 -182,0 -330,-148 -330,-331 0,-182 148,-330 330,-330 183,0 331,148 331,330zm2 0c0,-183 -149,-332 -333,-332 -183,0 -332,149 -332,332 0,184 149,333 332,333 184,0 333,-149 333,-333z"/>
    <path id="299" class="fil24" d="M620 288c0,184 -148,332 -332,332 -183,0 -331,-148 -331,-332 0,-183 148,-331 331,-331 184,0 332,148 332,331zm2 0c0,-184 -149,-333 -334,-333 -184,0 -333,149 -333,333 0,185 149,334 333,334 185,0 334,-149 334,-334z"/>
    <path id="300" class="fil24" d="M621 288c0,184 -149,333 -333,333 -183,0 -333,-149 -333,-333 0,-183 150,-333 333,-333 184,0 333,150 333,333zm2 0c0,-184 -150,-334 -335,-334 -184,0 -334,150 -334,334 0,185 150,335 334,335 185,0 335,-150 335,-335z"/>
    <path id="301" class="fil25" d="M623 288c0,185 -150,335 -335,335 -184,0 -334,-150 -334,-335 0,-184 150,-334 334,-334 185,0 335,150 335,334zm1 0c0,-185 -150,-335 -336,-335 -185,0 -335,150 -335,335 0,186 150,336 335,336 186,0 336,-150 336,-336z"/>
    <path id="302" class="fil26" d="M624 288c0,186 -150,336 -336,336 -185,0 -335,-150 -335,-336 0,-185 150,-335 335,-335 186,0 336,150 336,335zm1 0c0,-186 -150,-336 -337,-336 -186,0 -336,150 -336,336 0,187 150,337 336,337 187,0 337,-150 337,-337z"/>
    <path id="303" class="fil26" d="M625 288c0,186 -151,337 -337,337 -185,0 -336,-151 -336,-337 0,-185 151,-336 336,-336 186,0 337,151 337,336zm1 0c0,-186 -151,-338 -338,-338 -186,0 -338,152 -338,338 0,187 152,338 338,338 187,0 338,-151 338,-338z"/>
    <path id="304" class="fil27" d="M626 288c0,187 -151,338 -338,338 -186,0 -337,-151 -337,-338 0,-186 151,-337 337,-337 187,0 338,151 338,337zm2 0c0,-187 -152,-339 -340,-339 -187,0 -339,152 -339,339 0,188 152,340 339,340 188,0 340,-152 340,-340z"/>
    <path id="305" class="fil27" d="M627 288c0,187 -152,339 -339,339 -186,0 -338,-152 -338,-339 0,-186 152,-338 338,-338 187,0 339,152 339,338zm2 0c0,-187 -153,-340 -341,-340 -187,0 -340,153 -340,340 0,188 153,341 340,341 188,0 341,-153 341,-341z"/>
    <path id="306" class="fil28" d="M628 288c0,188 -152,340 -340,340 -187,0 -339,-152 -339,-340 0,-187 152,-339 339,-339 188,0 340,152 340,339zm2 0c0,-188 -153,-341 -342,-341 -188,0 -341,153 -341,341 0,189 153,342 341,342 189,0 342,-153 342,-342z"/>
    <path id="307" class="fil28" d="M629 288c0,189 -152,341 -341,341 -188,0 -340,-152 -340,-341 0,-188 152,-340 340,-340 189,0 341,152 341,340zm2 0c0,-189 -153,-342 -343,-342 -189,0 -342,153 -342,342 0,190 153,343 342,343 190,0 343,-153 343,-343z"/>
    <path id="308" class="fil29" d="M630 288c0,189 -153,342 -342,342 -188,0 -341,-153 -341,-342 0,-188 153,-341 341,-341 189,0 342,153 342,341zm2 0c0,-189 -154,-343 -344,-343 -189,0 -343,154 -343,343 0,190 154,344 343,344 190,0 344,-154 344,-344z"/>
    <path id="309" class="fil29" d="M631 288c0,190 -153,343 -343,343 -189,0 -343,-153 -343,-343 0,-189 154,-343 343,-343 190,0 343,154 343,343zm2 0c0,-190 -154,-344 -345,-344 -190,0 -344,154 -344,344 0,191 154,345 344,345 191,0 345,-154 345,-345z"/>
    <path id="310" class="fil30" d="M633 288c0,191 -154,345 -345,345 -190,0 -344,-154 -344,-345 0,-190 154,-344 344,-344 191,0 345,154 345,344zm1 0c0,-190 -155,-345 -346,-345 -190,0 -345,155 -345,345 0,191 155,346 345,346 191,0 346,-155 346,-346z"/>
    <path id="311" class="fil31" d="M634 288c0,191 -155,346 -346,346 -190,0 -345,-155 -345,-346 0,-190 155,-345 345,-345 191,0 346,155 346,345zm1 0c0,-191 -155,-346 -347,-346 -191,0 -346,155 -346,346 0,192 155,347 346,347 192,0 347,-155 347,-347z"/>
    <path id="312" class="fil31" d="M635 288c0,192 -155,347 -347,347 -191,0 -346,-155 -346,-347 0,-191 155,-346 346,-346 192,0 347,155 347,346zm1 0c0,-192 -155,-348 -348,-348 -192,0 -348,156 -348,348 0,193 156,348 348,348 193,0 348,-155 348,-348z"/>
    <path id="313" class="fil32" d="M636 288c0,192 -156,348 -348,348 -191,0 -347,-156 -347,-348 0,-191 156,-347 347,-347 192,0 348,156 348,347zm2 0c0,-192 -157,-349 -350,-349 -192,0 -349,157 -349,349 0,193 157,350 349,350 193,0 350,-157 350,-350z"/>
    <path id="314" class="fil32" d="M637 288c0,193 -156,349 -349,349 -192,0 -348,-156 -348,-349 0,-192 156,-348 348,-348 193,0 349,156 349,348zm2 0c0,-193 -157,-350 -351,-350 -193,0 -350,157 -350,350 0,194 157,351 350,351 194,0 351,-157 351,-351z"/>
    <path id="315" class="fil33" d="M638 288c0,194 -156,350 -350,350 -193,0 -349,-156 -349,-350 0,-193 156,-349 349,-349 194,0 350,156 350,349zm2 0c0,-194 -157,-351 -352,-351 -194,0 -351,157 -351,351 0,195 157,352 351,352 195,0 352,-157 352,-352z"/>
    <path id="316" class="fil33" d="M639 288c0,194 -157,351 -351,351 -193,0 -350,-157 -350,-351 0,-193 157,-350 350,-350 194,0 351,157 351,350zm2 0c0,-194 -158,-352 -353,-352 -194,0 -352,158 -352,352 0,195 158,353 352,353 195,0 353,-158 353,-353z"/>
    <path id="317" class="fil34" d="M640 288c0,195 -157,352 -352,352 -194,0 -351,-157 -351,-352 0,-194 157,-351 351,-351 195,0 352,157 352,351zm2 0c0,-195 -158,-353 -354,-353 -195,0 -353,158 -353,353 0,196 158,354 353,354 196,0 354,-158 354,-354z"/>
    <path id="318" class="fil34" d="M641 288c0,195 -158,353 -353,353 -194,0 -353,-158 -353,-353 0,-194 159,-353 353,-353 195,0 353,159 353,353zm2 0c0,-195 -159,-354 -355,-354 -195,0 -354,159 -354,354 0,196 159,355 354,355 196,0 355,-159 355,-355z"/>
    <path id="319" class="fil35" d="M643 288c0,196 -159,355 -355,355 -195,0 -354,-159 -354,-355 0,-195 159,-354 354,-354 196,0 355,159 355,354zm1 0c0,-196 -159,-355 -356,-355 -196,0 -355,159 -355,355 0,197 159,356 355,356 197,0 356,-159 356,-356z"/>
    <path id="320" class="fil36" d="M644 288c0,197 -159,356 -356,356 -196,0 -355,-159 -355,-356 0,-196 159,-355 355,-355 197,0 356,159 356,355zm1 0c0,-197 -159,-356 -357,-356 -197,0 -356,159 -356,356 0,198 159,357 356,357 198,0 357,-159 357,-357z"/>
    <path id="321" class="fil36" d="M645 288c0,197 -160,357 -357,357 -196,0 -356,-160 -356,-357 0,-196 160,-356 356,-356 197,0 357,160 357,356zm1 0c0,-197 -160,-357 -358,-357 -197,0 -357,160 -357,357 0,198 160,358 357,358 198,0 358,-160 358,-358z"/>
    <path id="322" class="fil37" d="M646 288c0,198 -160,358 -358,358 -197,0 -357,-160 -357,-358 0,-197 160,-357 357,-357 198,0 358,160 358,357zm2 0c0,-198 -161,-359 -360,-359 -198,0 -359,161 -359,359 0,199 161,360 359,360 199,0 360,-161 360,-360z"/>
    <path id="323" class="fil37" d="M647 288c0,198 -161,359 -359,359 -198,0 -358,-161 -358,-359 0,-198 160,-358 358,-358 198,0 359,160 359,358zm2 0c0,-198 -162,-360 -361,-360 -198,0 -360,162 -360,360 0,199 162,361 360,361 199,0 361,-162 361,-361z"/>
    <path id="324" class="fil38" d="M648 288c0,199 -161,360 -360,360 -198,0 -359,-161 -359,-360 0,-198 161,-359 359,-359 199,0 360,161 360,359zm2 0c0,-199 -162,-361 -362,-361 -199,0 -361,162 -361,361 0,200 162,362 361,362 200,0 362,-162 362,-362z"/>
    <path id="325" class="fil38" d="M649 288c0,200 -161,361 -361,361 -199,0 -360,-161 -360,-361 0,-199 161,-360 360,-360 200,0 361,161 361,360zm2 0c0,-200 -162,-362 -363,-362 -200,0 -362,162 -362,362 0,201 162,363 362,363 201,0 363,-162 363,-363z"/>
    <path id="326" class="fil39" d="M650 288c0,200 -162,362 -362,362 -199,0 -361,-162 -361,-362 0,-199 162,-361 361,-361 200,0 362,162 362,361zm2 0c0,-200 -163,-363 -364,-363 -200,0 -363,163 -363,363 0,201 163,364 363,364 201,0 364,-163 364,-364z"/>
    <path id="327" class="fil39" d="M651 288c0,201 -162,363 -363,363 -200,0 -362,-162 -362,-363 0,-200 162,-362 362,-362 201,0 363,162 363,362zm2 0c0,-201 -163,-364 -365,-364 -201,0 -364,163 -364,364 0,202 163,365 364,365 202,0 365,-163 365,-365z"/>
    <path id="328" class="fil40" d="M653 288c0,202 -163,365 -365,365 -201,0 -364,-163 -364,-365 0,-201 163,-364 364,-364 202,0 365,163 365,364zm1 0c0,-202 -164,-365 -366,-365 -202,0 -365,163 -365,365 0,202 163,366 365,366 202,0 366,-164 366,-366z"/>
    <path id="329" class="fil41" d="M654 288c0,202 -164,366 -366,366 -201,0 -365,-164 -365,-366 0,-201 164,-365 365,-365 202,0 366,164 366,365zm1 0c0,-202 -164,-366 -367,-366 -202,0 -366,164 -366,366 0,203 164,367 366,367 203,0 367,-164 367,-367z"/>
    <path id="330" class="fil41" d="M655 288c0,203 -164,367 -367,367 -202,0 -366,-164 -366,-367 0,-202 164,-366 366,-366 203,0 367,164 367,366zm1 0c0,-203 -164,-367 -368,-367 -203,0 -367,164 -367,367 0,204 164,368 367,368 204,0 368,-164 368,-368z"/>
    <path id="331" class="fil42" d="M656 288c0,203 -165,368 -368,368 -202,0 -367,-165 -367,-368 0,-202 165,-367 367,-367 203,0 368,165 368,367zm2 0c0,-203 -166,-369 -370,-369 -203,0 -369,166 -369,369 0,204 166,370 369,370 204,0 370,-166 370,-370z"/>
    <path id="332" class="fil42" d="M657 288c0,204 -165,369 -369,369 -203,0 -368,-165 -368,-369 0,-203 165,-368 368,-368 204,0 369,165 369,368zm2 0c0,-204 -166,-370 -371,-370 -204,0 -370,166 -370,370 0,205 166,371 370,371 205,0 371,-166 371,-371z"/>
    <path id="333" class="fil43" d="M658 288c0,205 -165,370 -370,370 -204,0 -369,-165 -369,-370 0,-204 165,-369 369,-369 205,0 370,165 370,369zm2 0c0,-205 -166,-371 -372,-371 -205,0 -371,166 -371,371 0,206 166,372 371,372 206,0 372,-166 372,-372z"/>
    <path id="334" class="fil43" d="M659 288c0,205 -166,371 -371,371 -204,0 -370,-166 -370,-371 0,-204 166,-370 370,-370 205,0 371,166 371,370zm2 0c0,-205 -167,-372 -373,-372 -205,0 -372,167 -372,372 0,206 167,373 372,373 206,0 373,-167 373,-373z"/>
    <path id="335" class="fil44" d="M660 288c0,206 -166,372 -372,372 -205,0 -371,-166 -371,-372 0,-205 166,-371 371,-371 206,0 372,166 372,371zm2 0c0,-206 -167,-373 -374,-373 -206,0 -373,167 -373,373 0,207 167,374 373,374 207,0 374,-167 374,-374z"/>
    <path id="336" class="fil44" d="M661 288c0,206 -167,373 -373,373 -206,0 -372,-167 -372,-373 0,-206 166,-372 372,-372 206,0 373,166 373,372zm2 0c0,-206 -168,-374 -375,-374 -206,0 -374,168 -374,374 0,207 168,375 374,375 207,0 375,-168 375,-375z"/>
    <path id="337" class="fil45" d="M663 288c0,207 -168,375 -375,375 -206,0 -374,-168 -374,-375 0,-206 168,-374 374,-374 207,0 375,168 375,374zm1 0c0,-207 -168,-375 -376,-375 -207,0 -375,168 -375,375 0,208 168,376 375,376 208,0 376,-168 376,-376z"/>
    <path id="338" class="fil46" d="M664 288c0,208 -168,376 -376,376 -207,0 -375,-168 -375,-376 0,-207 168,-375 375,-375 208,0 376,168 376,375zm1 0c0,-208 -168,-376 -377,-376 -208,0 -376,168 -376,376 0,209 168,377 376,377 209,0 377,-168 377,-377z"/>
    <path id="339" class="fil46" d="M665 288c0,208 -169,377 -377,377 -207,0 -376,-169 -376,-377 0,-207 169,-376 376,-376 208,0 377,169 377,376zm1 0c0,-208 -169,-377 -378,-377 -208,0 -377,169 -377,377 0,209 169,378 377,378 209,0 378,-169 378,-378z"/>
    <path id="340" class="fil47" d="M666 288c0,209 -169,378 -378,378 -208,0 -377,-169 -377,-378 0,-208 169,-377 377,-377 209,0 378,169 378,377zm2 0c0,-209 -170,-379 -380,-379 -209,0 -379,170 -379,379 0,210 170,380 379,380 210,0 380,-170 380,-380z"/>
    <path id="341" class="fil47" d="M667 288c0,210 -169,379 -379,379 -209,0 -378,-169 -378,-379 0,-209 169,-378 378,-378 210,0 379,169 379,378zm2 0c0,-209 -171,-380 -381,-380 -209,0 -380,171 -380,380 0,210 171,381 380,381 210,0 381,-171 381,-381z"/>
    <path id="342" class="fil48" d="M668 288c0,210 -170,380 -380,380 -209,0 -379,-170 -379,-380 0,-209 170,-379 379,-379 210,0 380,170 380,379zm2 0c0,-210 -171,-381 -382,-381 -210,0 -381,171 -381,381 0,211 171,382 381,382 211,0 382,-171 382,-382z"/>
    <path id="343" class="fil48" d="M669 288c0,211 -170,381 -381,381 -210,0 -380,-170 -380,-381 0,-210 170,-380 380,-380 211,0 381,170 381,380zm2 0c0,-211 -171,-382 -383,-382 -211,0 -382,171 -382,382 0,212 171,383 382,383 212,0 383,-171 383,-383z"/>
    <path id="344" class="fil49" d="M670 288c0,211 -171,382 -382,382 -210,0 -381,-171 -381,-382 0,-210 171,-381 381,-381 211,0 382,171 382,381zm2 0c0,-211 -172,-383 -384,-383 -211,0 -383,172 -383,383 0,212 172,384 383,384 212,0 384,-172 384,-384z"/>
    <path id="345" class="fil49" d="M671 288c0,212 -171,383 -383,383 -211,0 -382,-171 -382,-383 0,-211 171,-382 382,-382 212,0 383,171 383,382zm2 0c0,-212 -172,-384 -385,-384 -212,0 -384,172 -384,384 0,213 172,385 384,385 213,0 385,-172 385,-385z"/>
    <path id="346" class="fil50" d="M673 288c0,213 -172,385 -385,385 -212,0 -384,-172 -384,-385 0,-212 172,-384 384,-384 213,0 385,172 385,384zm1 0c0,-213 -172,-385 -386,-385 -213,0 -385,172 -385,385 0,214 172,386 385,386 214,0 386,-172 386,-386z"/>
    <path id="347" class="fil51" d="M674 288c0,213 -173,386 -386,386 -212,0 -385,-173 -385,-386 0,-212 173,-385 385,-385 213,0 386,173 386,385zm1 0c0,-213 -173,-386 -387,-386 -213,0 -386,173 -386,386 0,214 173,387 386,387 214,0 387,-173 387,-387z"/>
    <path id="348" class="fil51" d="M675 288c0,214 -173,387 -387,387 -213,0 -386,-173 -386,-387 0,-213 173,-386 386,-386 214,0 387,173 387,386zm1 0c0,-214 -173,-387 -388,-387 -214,0 -387,173 -387,387 0,215 173,388 387,388 215,0 388,-173 388,-388z"/>
    <path id="349" class="fil52" d="M676 288c0,214 -174,388 -388,388 -213,0 -387,-174 -387,-388 0,-213 174,-387 387,-387 214,0 388,174 388,387zm2 0c0,-214 -175,-389 -390,-389 -214,0 -389,175 -389,389 0,215 175,390 389,390 215,0 390,-175 390,-390z"/>
    <path id="350" class="fil52" d="M677 288c0,215 -174,389 -389,389 -214,0 -388,-174 -388,-389 0,-214 174,-388 388,-388 215,0 389,174 389,388zm2 0c0,-215 -175,-390 -391,-390 -215,0 -390,175 -390,390 0,216 175,391 390,391 216,0 391,-175 391,-391z"/>
    <path id="351" class="fil53" d="M678 288c0,216 -174,390 -390,390 -215,0 -389,-174 -389,-390 0,-215 174,-389 389,-389 216,0 390,174 390,389zm2 0c0,-216 -175,-391 -392,-391 -216,0 -391,175 -391,391 0,217 175,392 391,392 217,0 392,-175 392,-392z"/>
    <path id="352" class="fil53" d="M679 288c0,216 -175,391 -391,391 -215,0 -390,-175 -390,-391 0,-215 175,-390 390,-390 216,0 391,175 391,390zm2 0c0,-216 -176,-392 -393,-392 -216,0 -392,176 -392,392 0,217 176,393 392,393 217,0 393,-176 393,-393z"/>
    <path id="353" class="fil54" d="M680 288c0,217 -175,392 -392,392 -216,0 -391,-175 -391,-392 0,-216 175,-391 391,-391 217,0 392,175 392,391zm2 0c0,-217 -176,-393 -394,-393 -217,0 -393,176 -393,393 0,218 176,394 393,394 218,0 394,-176 394,-394z"/>
    <path id="354" class="fil54" d="M681 288c0,217 -176,393 -393,393 -217,0 -392,-176 -392,-393 0,-217 175,-392 392,-392 217,0 393,175 393,392zm2 0c0,-217 -177,-394 -395,-394 -217,0 -394,177 -394,394 0,218 177,395 394,395 218,0 395,-177 395,-395z"/>
    <path id="355" class="fil55" d="M683 288c0,218 -177,395 -395,395 -217,0 -394,-177 -394,-395 0,-217 177,-394 394,-394 218,0 395,177 395,394zm1 0c0,-218 -177,-395 -396,-395 -218,0 -395,177 -395,395 0,219 177,396 395,396 219,0 396,-177 396,-396z"/>
    <path id="356" class="fil56" d="M684 288c0,219 -177,396 -396,396 -218,0 -395,-177 -395,-396 0,-218 177,-395 395,-395 219,0 396,177 396,395zm1 0c0,-219 -177,-396 -397,-396 -219,0 -396,177 -396,396 0,220 177,397 396,397 220,0 397,-177 397,-397z"/>
    <path id="357" class="fil56" d="M685 288c0,219 -178,397 -397,397 -218,0 -396,-178 -396,-397 0,-218 178,-396 396,-396 219,0 397,178 397,396zm1 0c0,-219 -178,-397 -398,-397 -219,0 -397,178 -397,397 0,220 178,398 397,398 220,0 398,-178 398,-398z"/>
    <path id="358" class="fil57" d="M686 288c0,220 -178,398 -398,398 -219,0 -397,-178 -397,-398 0,-219 178,-397 397,-397 220,0 398,178 398,397zm2 0c0,-220 -179,-399 -400,-399 -220,0 -399,179 -399,399 0,221 179,400 399,400 221,0 400,-179 400,-400z"/>
    <path id="359" class="fil57" d="M687 288c0,221 -178,399 -399,399 -220,0 -398,-178 -398,-399 0,-220 178,-398 398,-398 221,0 399,178 399,398zm2 0c0,-221 -180,-400 -401,-400 -221,0 -400,179 -400,400 0,221 179,401 400,401 221,0 401,-180 401,-401z"/>
    <path id="360" class="fil58" d="M688 288c0,221 -179,400 -400,400 -220,0 -399,-179 -399,-400 0,-220 179,-399 399,-399 221,0 400,179 400,399zm2 0c0,-221 -180,-401 -402,-401 -221,0 -401,180 -401,401 0,222 180,402 401,402 222,0 402,-180 402,-402z"/>
    <path id="361" class="fil58" d="M689 288c0,222 -179,401 -401,401 -221,0 -400,-179 -400,-401 0,-221 179,-400 400,-400 222,0 401,179 401,400zm2 0c0,-222 -180,-402 -403,-402 -222,0 -402,180 -402,402 0,223 180,403 402,403 223,0 403,-180 403,-403z"/>
    <path id="362" class="fil59" d="M690 288c0,222 -180,402 -402,402 -221,0 -401,-180 -401,-402 0,-221 180,-401 401,-401 222,0 402,180 402,401zm2 0c0,-222 -181,-403 -404,-403 -222,0 -403,181 -403,403 0,223 181,404 403,404 223,0 404,-181 404,-404z"/>
    <path id="363" class="fil59" d="M691 288c0,223 -180,403 -403,403 -222,0 -402,-180 -402,-403 0,-222 180,-402 402,-402 223,0 403,180 403,402zm2 0c0,-223 -181,-404 -405,-404 -223,0 -404,181 -404,404 0,224 181,405 404,405 224,0 405,-181 405,-405z"/>
   </g>
   <path id="364" class="fil154 str0" d="M288 4c157,0 285,128 285,284 0,157 -128,285 -285,285 -156,0 -284,-128 -284,-285 0,-156 128,-284 284,-284z"/>
  </g>
  <circle class="fil155 str1" cx="288" cy="288" r="150"/>
 </g>
</svg>
